<svg xmlns="http://www.w3.org/2000/svg" xmlns:xlink="http://www.w3.org/1999/xlink" width="700" height="385.65"><rect width="700" height="385.65" rx="5" ry="5" class="a"/><svg y="0%" x="0%"><circle cx="20" cy="20" r="6" fill="#ff5f58"/><circle cx="40" cy="20" r="6" fill="#ffbd2e"/><circle cx="60" cy="20" r="6" fill="#18c132"/></svg><svg height="325.65" viewBox="0 0 66 32.565" width="660" x="15" xmlns="http://www.w3.org/2000/svg" xmlns:xlink="http://www.w3.org/1999/xlink" y="50"><style>@keyframes k{0%{transform:translateX(0)}.2%{transform:translateX(-132px)}11.8%{transform:translateX(-198px)}13.7%{transform:translateX(-264px)}16.8%{transform:translateX(-330px)}20.2%{transform:translateX(-396px)}23.4%{transform:translateX(-462px)}28.4%{transform:translateX(-528px)}33.8%{transform:translateX(-594px)}36.6%{transform:translateX(-660px)}42.3%{transform:translateX(-726px)}66.2%{transform:translateX(-792px)}66.3%{transform:translateX(-858px)}66.4%{transform:translateX(-990px)}68%{transform:translateX(-1056px)}68.2%{transform:translateX(-1188px)}68.3%{transform:translateX(-1452px)}to{transform:translateX(-1518px)}}.a{fill:#282d35}.f,.h{fill:#a8cc8c;white-space:pre}.h{fill:#b9c0cb}</style><g font-family="Monaco,Consolas,Menlo,'Bitstream Vera Sans Mono','Powerline Symbols',monospace" font-size="1.67"><defs><symbol id="1"><text y="1.67" class="f">➜</text></symbol><symbol id="2"><text y="1.67" class="f">➜</text><text x="2.004" y="1.67" class="f">git</text></symbol><symbol id="3"><text y="1.67" class="f">➜</text><text x="2.004" y="1.67" class="f">git</text><text x="6.012" y="1.67" class="f">pull</text></symbol><symbol id="4"><text y="1.67" class="f">remote:</text><text x="8.016" y="1.67" class="f">Enumerating</text><text x="20.04" y="1.67" class="f">objects:</text><text x="29.058" y="1.67" class="f">5,</text><text x="32.064" y="1.67" class="f">done.</text></symbol><symbol id="5"><text y="1.67" class="f">remote:</text><text x="8.016" y="1.67" class="f">Counting</text><text x="17.034" y="1.67" class="f">objects:</text><text x="26.052" y="1.67" class="f">100%</text><text x="31.062" y="1.67" class="f">(5/5),</text><text x="38.076" y="1.67" class="f">done.</text></symbol><symbol id="6"><text y="1.67" class="f">remote:</text><text x="8.016" y="1.67" class="f">Compressing</text><text x="20.04" y="1.67" class="f">objects:</text><text x="29.058" y="1.67" class="f">100%</text><text x="34.068" y="1.67" class="f">(2/2),</text><text x="41.082" y="1.67" class="f">done.</text></symbol><symbol id="7"><text y="1.67" class="f">remote:</text><text x="8.016" y="1.67" class="f">Total</text><text x="14.028" y="1.67" class="f">3</text><text x="16.032" y="1.67" class="f">(delta</text><text x="23.046" y="1.67" class="f">0),</text><text x="27.054" y="1.67" class="f">reused</text><text x="34.068" y="1.67" class="f">2</text><text x="36.072" y="1.67" class="f">(delta</text><text x="43.086" y="1.67" class="f">0),</text><text x="47.094" y="1.67" class="f">pack-reused</text><text x="59.118" y="1.67" class="f">0</text></symbol><symbol id="8"><text y="1.67" class="f">Unpacking</text><text x="10.02" y="1.67" class="f">objects:</text><text x="19.038" y="1.67" class="f">100%</text><text x="24.048" y="1.67" class="f">(3/3),</text><text x="31.062" y="1.67" class="f">695</text><text x="35.07" y="1.67" class="f">bytes</text><text x="41.082" y="1.67" class="f">|</text><text x="43.086" y="1.67" class="f">695.00</text><text x="50.1" y="1.67" class="f">KiB/s,</text><text x="57.114" y="1.67" class="f">done.</text></symbol><symbol id="9"><text y="1.67" class="f">From</text><text x="5.01" y="1.67" class="f">github.com:ps-pat/dummy</text></symbol><symbol id="10"><text x="3.006" y="1.67" class="f">b139955..2158362</text><text x="21.042" y="1.67" class="f">main</text><text x="32.064" y="1.67" class="f">-&gt;</text><text x="35.07" y="1.67" class="f">origin/main</text></symbol><symbol id="11"><text y="1.67" class="f">Updating</text><text x="9.018" y="1.67" class="f">b139955..2158362</text></symbol><symbol id="12"><text y="1.67" class="f">Fast-forward</text></symbol><symbol id="13"><text x="1.002" y="1.67" class="f">README.md</text><text x="11.022" y="1.67" class="f">|</text><text x="13.026" y="1.67" class="f">1</text><text x="15.03" y="1.67" style="white-space:pre" fill="#e88388">-</text></symbol><symbol id="14"><text x="1.002" y="1.67" class="h">1</text><text x="3.006" y="1.67" class="h">file</text><text x="8.016" y="1.67" class="h">changed,</text><text x="17.034" y="1.67" class="h">1</text><text x="19.038" y="1.67" class="h">deletion(-)</text></symbol><symbol id="a"><path fill="transparent" d="M0 0h66v16H0z"/></symbol><symbol id="b"><path fill="#6f7683" d="M0 0h1.102v2.171H0z"/></symbol></defs><path class="a" d="M0 0h66v32.565H0z"/><g style="animation-duration:4.522475s;animation-iteration-count:infinite;animation-name:k;animation-timing-function:steps(1,end)"><svg width="1584"><svg><use xlink:href="#a"/><use xlink:href="#b" x="-.004"/></svg><svg x="66"><use xlink:href="#a"/><use xlink:href="#b" x="-.004"/></svg><svg x="132"><use xlink:href="#a"/><use xlink:href="#b" x="1.996" y="2.146"/><use xlink:href="#1" y="2.171"/></svg><svg x="198"><use xlink:href="#a"/><use xlink:href="#b" x="2.996" y="2.146"/><text y="3.841" class="f">➜</text><text x="2.004" y="3.841" class="f">g</text></svg><svg x="264"><use xlink:href="#a"/><use xlink:href="#b" x="3.996" y="2.146"/><text y="3.841" class="f">➜</text><text x="2.004" y="3.841" class="f">gi</text></svg><svg x="330"><use xlink:href="#a"/><use xlink:href="#b" x="4.996" y="2.146"/><use xlink:href="#2" y="2.171"/></svg><svg x="396"><use xlink:href="#a"/><use xlink:href="#b" x="5.996" y="2.146"/><use xlink:href="#2" y="2.171"/></svg><svg x="462"><use xlink:href="#a"/><use xlink:href="#b" x="6.996" y="2.146"/><text y="3.841" class="f">➜</text><text x="2.004" y="3.841" class="f">git</text><text x="6.012" y="3.841" class="f">p</text></svg><svg x="528"><use xlink:href="#a"/><use xlink:href="#b" x="7.996" y="2.146"/><text y="3.841" class="f">➜</text><text x="2.004" y="3.841" class="f">git</text><text x="6.012" y="3.841" class="f">pu</text></svg><svg x="594"><use xlink:href="#a"/><use xlink:href="#b" x="8.996" y="2.146"/><text y="3.841" class="f">➜</text><text x="2.004" y="3.841" class="f">git</text><text x="6.012" y="3.841" class="f">pul</text></svg><svg x="660"><use xlink:href="#a"/><use xlink:href="#b" x="9.996" y="2.146"/><use xlink:href="#3" y="2.171"/></svg><svg x="726"><use xlink:href="#a"/><use xlink:href="#b" x="-.004" y="4.317"/><use xlink:href="#3" y="2.171"/></svg><svg x="792"><use xlink:href="#a"/><use xlink:href="#b" x="-.004" y="10.83"/><use xlink:href="#3" y="2.171"/><use xlink:href="#4" y="4.342"/><use xlink:href="#5" y="6.513"/><use xlink:href="#6" y="8.684"/></svg><svg x="858"><use xlink:href="#a"/><use xlink:href="#b" x="-.004" y="13.001"/><use xlink:href="#3" y="2.171"/><use xlink:href="#4" y="4.342"/><use xlink:href="#5" y="6.513"/><use xlink:href="#6" y="8.684"/><use xlink:href="#7" y="10.855"/></svg><svg x="924"><use xlink:href="#a"/><use xlink:href="#b" x="-.004" y="13.001"/><use xlink:href="#3" y="2.171"/><use xlink:href="#4" y="4.342"/><use xlink:href="#5" y="6.513"/><use xlink:href="#6" y="8.684"/><use xlink:href="#7" y="10.855"/><text y="14.696" class="f">Unpacking</text><text x="10.02" y="14.696" class="f">objects:</text><text x="20.04" y="14.696" class="f">33%</text><text x="24.048" y="14.696" class="f">(1/3)</text></svg><svg x="990"><use xlink:href="#a"/><use xlink:href="#b" x="-.004" y="15.172"/><use xlink:href="#3" y="2.171"/><use xlink:href="#4" y="4.342"/><use xlink:href="#5" y="6.513"/><use xlink:href="#6" y="8.684"/><use xlink:href="#7" y="10.855"/><use xlink:href="#8" y="13.026"/></svg><svg x="1056"><use xlink:href="#a"/><use xlink:href="#b" x="-.004" y="19.514"/><use xlink:href="#3" y="2.171"/><use xlink:href="#4" y="4.342"/><use xlink:href="#5" y="6.513"/><use xlink:href="#6" y="8.684"/><use xlink:href="#7" y="10.855"/><use xlink:href="#8" y="13.026"/><use xlink:href="#9" y="15.197"/><use xlink:href="#10" y="17.368"/></svg><svg x="1122"><use xlink:href="#a"/><use xlink:href="#b" x="-.004" y="21.685"/><use xlink:href="#3" y="2.171"/><use xlink:href="#4" y="4.342"/><use xlink:href="#5" y="6.513"/><use xlink:href="#6" y="8.684"/><use xlink:href="#7" y="10.855"/><use xlink:href="#8" y="13.026"/><use xlink:href="#9" y="15.197"/><use xlink:href="#10" y="17.368"/><use xlink:href="#11" y="19.539"/></svg><svg x="1188"><use xlink:href="#a"/><use xlink:href="#b" x="-.004" y="23.856"/><use xlink:href="#3" y="2.171"/><use xlink:href="#4" y="4.342"/><use xlink:href="#5" y="6.513"/><use xlink:href="#6" y="8.684"/><use xlink:href="#7" y="10.855"/><use xlink:href="#8" y="13.026"/><use xlink:href="#9" y="15.197"/><use xlink:href="#10" y="17.368"/><use xlink:href="#11" y="19.539"/><use xlink:href="#12" y="21.71"/></svg><svg x="1254"><use xlink:href="#a"/><use xlink:href="#b" x="15.996" y="23.856"/><use xlink:href="#3" y="2.171"/><use xlink:href="#4" y="4.342"/><use xlink:href="#5" y="6.513"/><use xlink:href="#6" y="8.684"/><use xlink:href="#7" y="10.855"/><use xlink:href="#8" y="13.026"/><use xlink:href="#9" y="15.197"/><use xlink:href="#10" y="17.368"/><use xlink:href="#11" y="19.539"/><use xlink:href="#12" y="21.71"/><use xlink:href="#13" y="23.881"/></svg><svg x="1320"><use xlink:href="#a"/><use xlink:href="#b" x="-.004" y="28.198"/><use xlink:href="#3" y="2.171"/><use xlink:href="#4" y="4.342"/><use xlink:href="#5" y="6.513"/><use xlink:href="#6" y="8.684"/><use xlink:href="#7" y="10.855"/><use xlink:href="#8" y="13.026"/><use xlink:href="#9" y="15.197"/><use xlink:href="#10" y="17.368"/><use xlink:href="#11" y="19.539"/><use xlink:href="#12" y="21.71"/><use xlink:href="#13" y="23.881"/><use xlink:href="#14" y="26.052"/></svg><svg x="1386"><use xlink:href="#a"/><use xlink:href="#b" x="-.004" y="28.198"/><use xlink:href="#3" y="2.171"/><use xlink:href="#4" y="4.342"/><use xlink:href="#5" y="6.513"/><use xlink:href="#6" y="8.684"/><use xlink:href="#7" y="10.855"/><use xlink:href="#8" y="13.026"/><use xlink:href="#9" y="15.197"/><use xlink:href="#10" y="17.368"/><use xlink:href="#11" y="19.539"/><use xlink:href="#12" y="21.71"/><use xlink:href="#13" y="23.881"/><use xlink:href="#14" y="26.052"/></svg><svg x="1452"><use xlink:href="#a"/><use xlink:href="#b" x="1.996" y="30.369"/><use xlink:href="#3" y="2.171"/><use xlink:href="#4" y="4.342"/><use xlink:href="#5" y="6.513"/><use xlink:href="#6" y="8.684"/><use xlink:href="#7" y="10.855"/><use xlink:href="#8" y="13.026"/><use xlink:href="#9" y="15.197"/><use xlink:href="#10" y="17.368"/><use xlink:href="#11" y="19.539"/><use xlink:href="#12" y="21.71"/><use xlink:href="#13" y="23.881"/><use xlink:href="#14" y="26.052"/><use xlink:href="#1" y="30.394"/></svg><svg x="1518"><use xlink:href="#a"/><use xlink:href="#b" x="-.004" y="32.54"/><use xlink:href="#3"/><use xlink:href="#4" y="2.171"/><use xlink:href="#5" y="4.342"/><use xlink:href="#6" y="6.513"/><use xlink:href="#7" y="8.684"/><use xlink:href="#8" y="10.855"/><use xlink:href="#9" y="13.026"/><use xlink:href="#10" y="15.197"/><use xlink:href="#11" y="17.368"/><use xlink:href="#12" y="19.539"/><use xlink:href="#13" y="21.71"/><use xlink:href="#14" y="23.881"/><use xlink:href="#1" y="28.223"/><text y="32.064" class="f">exit</text></svg></svg></g></g></svg></svg>