<svg xmlns="http://www.w3.org/2000/svg" xmlns:xlink="http://www.w3.org/1999/xlink" width="700" height="385.65"><rect width="700" height="385.65" rx="5" ry="5" class="a"/><svg y="0%" x="0%"><circle cx="20" cy="20" r="6" fill="#ff5f58"/><circle cx="40" cy="20" r="6" fill="#ffbd2e"/><circle cx="60" cy="20" r="6" fill="#18c132"/></svg><svg height="325.65" viewBox="0 0 66 32.565" width="660" x="15" xmlns="http://www.w3.org/2000/svg" xmlns:xlink="http://www.w3.org/1999/xlink" y="50"><style>@keyframes i{0%{transform:translateX(0)}.04%{transform:translateX(-132px)}2.81%{transform:translateX(-198px)}3.81%{transform:translateX(-264px)}4.27%{transform:translateX(-330px)}4.54%{transform:translateX(-396px)}5.27%{transform:translateX(-462px)}6.58%{transform:translateX(-528px)}7.92%{transform:translateX(-594px)}8.47%{transform:translateX(-660px)}9.01%{transform:translateX(-726px)}11.38%{transform:translateX(-792px)}12.22%{transform:translateX(-858px)}13.64%{transform:translateX(-924px)}14.2%{transform:translateX(-990px)}15.77%{transform:translateX(-1056px)}17.41%{transform:translateX(-1122px)}17.6%{transform:translateX(-1188px)}18.36%{transform:translateX(-1254px)}18.82%{transform:translateX(-1320px)}19.4%{transform:translateX(-1386px)}19.77%{transform:translateX(-1452px)}21.22%{transform:translateX(-1518px)}23.83%{transform:translateX(-1584px)}24.3%{transform:translateX(-1650px)}27.14%{transform:translateX(-1848px)}33.63%{transform:translateX(-1914px)}34.09%{transform:translateX(-1980px)}34.98%{transform:translateX(-2046px)}35.59%{transform:translateX(-2112px)}36.79%{transform:translateX(-2178px)}37.72%{transform:translateX(-2244px)}38.3%{transform:translateX(-2310px)}39.59%{transform:translateX(-2376px)}41.42%{transform:translateX(-2442px)}41.69%{transform:translateX(-2508px)}42.53%{transform:translateX(-2574px)}43.08%{transform:translateX(-2640px)}43.82%{transform:translateX(-2706px)}44.1%{transform:translateX(-2772px)}47.17%{transform:translateX(-2838px)}49.6%{transform:translateX(-2904px)}50.06%{transform:translateX(-2970px)}51.81%{transform:translateX(-3036px)}51.85%{transform:translateX(-3168px)}56.38%{transform:translateX(-3234px)}56.66%{transform:translateX(-3300px)}57.26%{transform:translateX(-3366px)}57.73%{transform:translateX(-3432px)}58.6%{transform:translateX(-3498px)}58.88%{transform:translateX(-3564px)}59.78%{transform:translateX(-3630px)}60.4%{transform:translateX(-3696px)}61.21%{transform:translateX(-3762px)}61.63%{transform:translateX(-3828px)}62.19%{transform:translateX(-3894px)}62.81%{transform:translateX(-3960px)}64.99%{transform:translateX(-4026px)}67.08%{transform:translateX(-4092px)}68.56%{transform:translateX(-4158px)}70.06%{transform:translateX(-4224px)}70.87%{transform:translateX(-4290px)}71.47%{transform:translateX(-4356px)}72.03%{transform:translateX(-4422px)}72.63%{transform:translateX(-4488px)}73%{transform:translateX(-4554px)}74.27%{transform:translateX(-4620px)}75.58%{transform:translateX(-4686px)}76.81%{transform:translateX(-4752px)}77.37%{transform:translateX(-4818px)}77.83%{transform:translateX(-4884px)}79.05%{transform:translateX(-4950px)}81.89%{transform:translateX(-5016px)}82.88%{transform:translateX(-5082px)}83.35%{transform:translateX(-5148px)}83.9%{transform:translateX(-5214px)}85.04%{transform:translateX(-5280px)}85.73%{transform:translateX(-5346px)}86.53%{transform:translateX(-5412px)}87.11%{transform:translateX(-5478px)}87.83%{transform:translateX(-5544px)}88.29%{transform:translateX(-5610px)}89.75%{transform:translateX(-5676px)}90.86%{transform:translateX(-5742px)}93.67%{transform:translateX(-5808px)}93.74%{transform:translateX(-5874px)}93.75%{transform:translateX(-6072px)}to{transform:translateX(-6138px)}}.a{fill:#282d35}.f{fill:#a8cc8c;white-space:pre}</style><g font-family="Monaco,Consolas,Menlo,'Bitstream Vera Sans Mono','Powerline Symbols',monospace" font-size="1.67"><defs><symbol id="1"><text y="1.67" class="f">➜</text></symbol><symbol id="2"><text y="1.67" class="f">➜</text><text x="2.004" y="1.67" class="f">echo</text></symbol><symbol id="3"><text y="1.67" class="f">➜</text><text x="2.004" y="1.67" class="f">echo</text><text x="7.014" y="1.67" class="f">&quot;foo&quot;</text></symbol><symbol id="4"><text y="1.67" class="f">➜</text><text x="2.004" y="1.67" class="f">echo</text><text x="7.014" y="1.67" class="f">&quot;foo&quot;</text><text x="13.026" y="1.67" class="f">&gt;&gt;</text></symbol><symbol id="5"><text y="1.67" class="f">➜</text><text x="2.004" y="1.67" class="f">echo</text><text x="7.014" y="1.67" class="f">&quot;foo&quot;</text><text x="13.026" y="1.67" class="f">&gt;&gt;</text><text x="16.032" y="1.67" class="f">README.md</text></symbol><symbol id="6"><text y="1.67" class="f">➜</text><text x="2.004" y="1.67" class="f">g</text></symbol><symbol id="7"><text y="1.67" class="f">➜</text><text x="2.004" y="1.67" class="f">gi</text></symbol><symbol id="8"><text y="1.67" class="f">➜</text><text x="2.004" y="1.67" class="f">git</text></symbol><symbol id="9"><text y="1.67" class="f">➜</text><text x="2.004" y="1.67" class="f">git</text><text x="6.012" y="1.67" class="f">add</text></symbol><symbol id="10"><text y="1.67" class="f">➜</text><text x="2.004" y="1.67" class="f">git</text><text x="6.012" y="1.67" class="f">add</text><text x="10.02" y="1.67" class="f">README.md</text></symbol><symbol id="11"><text y="1.67" class="f">➜</text><text x="2.004" y="1.67" class="f">git</text><text x="6.012" y="1.67" class="f">commit</text></symbol><symbol id="12"><text y="1.67" class="f">➜</text><text x="2.004" y="1.67" class="f">git</text><text x="6.012" y="1.67" class="f">commit</text><text x="13.026" y="1.67" class="f">-m</text></symbol><symbol id="13"><text y="1.67" class="f">➜</text><text x="2.004" y="1.67" class="f">git</text><text x="6.012" y="1.67" class="f">commit</text><text x="13.026" y="1.67" class="f">-m</text><text x="16.032" y="1.67" class="f">&quot;Ajoute</text></symbol><symbol id="14"><text y="1.67" class="f">➜</text><text x="2.004" y="1.67" class="f">git</text><text x="6.012" y="1.67" class="f">commit</text><text x="13.026" y="1.67" class="f">-m</text><text x="16.032" y="1.67" class="f">&quot;Ajoute</text><text x="24.048" y="1.67" class="f">&apos;foo&apos;</text></symbol><symbol id="15"><text y="1.67" class="f">➜</text><text x="2.004" y="1.67" class="f">git</text><text x="6.012" y="1.67" class="f">commit</text><text x="13.026" y="1.67" class="f">-m</text><text x="16.032" y="1.67" class="f">&quot;Ajoute</text><text x="24.048" y="1.67" class="f">&apos;foo&apos;</text><text x="30.06" y="1.67" class="f">au</text></symbol><symbol id="16"><text y="1.67" class="f">➜</text><text x="2.004" y="1.67" class="f">git</text><text x="6.012" y="1.67" class="f">commit</text><text x="13.026" y="1.67" class="f">-m</text><text x="16.032" y="1.67" class="f">&quot;Ajoute</text><text x="24.048" y="1.67" class="f">&apos;foo&apos;</text><text x="30.06" y="1.67" class="f">au</text><text x="33.066" y="1.67" class="f">Readme.&quot;</text></symbol><symbol id="17"><text y="1.67" class="f">[main</text><text x="6.012" y="1.67" class="f">7989d8c]</text><text x="15.03" y="1.67" class="f">Ajoute</text><text x="22.044" y="1.67" class="f">&apos;foo&apos;</text><text x="28.056" y="1.67" class="f">au</text><text x="31.062" y="1.67" class="f">Readme.</text></symbol><symbol id="18"><text x="1.002" y="1.67" class="f">1</text><text x="3.006" y="1.67" class="f">file</text><text x="8.016" y="1.67" class="f">changed,</text><text x="17.034" y="1.67" class="f">1</text><text x="19.038" y="1.67" class="f">insertion(+)</text></symbol><symbol id="a"><path fill="transparent" d="M0 0h66v16H0z"/></symbol><symbol id="b"><path fill="#6f7683" d="M0 0h1.102v2.171H0z"/></symbol></defs><path class="a" d="M0 0h66v32.565H0z"/><g style="animation-duration:21.959099s;animation-iteration-count:infinite;animation-name:i;animation-timing-function:steps(1,end)"><svg width="6204"><svg><use xlink:href="#a"/><use xlink:href="#b" x="-.004"/></svg><svg x="66"><use xlink:href="#a"/><use xlink:href="#b" x="-.004"/></svg><svg x="132"><use xlink:href="#a"/><use xlink:href="#b" x="1.996" y="2.146"/><use xlink:href="#1" y="2.171"/></svg><svg x="198"><use xlink:href="#a"/><use xlink:href="#b" x="2.996" y="2.146"/><text y="3.841" class="f">➜</text><text x="2.004" y="3.841" class="f">e</text></svg><svg x="264"><use xlink:href="#a"/><use xlink:href="#b" x="3.996" y="2.146"/><text y="3.841" class="f">➜</text><text x="2.004" y="3.841" class="f">ec</text></svg><svg x="330"><use xlink:href="#a"/><use xlink:href="#b" x="4.996" y="2.146"/><text y="3.841" class="f">➜</text><text x="2.004" y="3.841" class="f">ech</text></svg><svg x="396"><use xlink:href="#a"/><use xlink:href="#b" x="5.996" y="2.146"/><use xlink:href="#2" y="2.171"/></svg><svg x="462"><use xlink:href="#a"/><use xlink:href="#b" x="6.996" y="2.146"/><use xlink:href="#2" y="2.171"/></svg><svg x="528"><use xlink:href="#a"/><use xlink:href="#b" x="7.996" y="2.146"/><text y="3.841" class="f">➜</text><text x="2.004" y="3.841" class="f">echo</text><text x="7.014" y="3.841" class="f">&quot;</text></svg><svg x="594"><use xlink:href="#a"/><use xlink:href="#b" x="8.996" y="2.146"/><text y="3.841" class="f">➜</text><text x="2.004" y="3.841" class="f">echo</text><text x="7.014" y="3.841" class="f">&quot;f</text></svg><svg x="660"><use xlink:href="#a"/><use xlink:href="#b" x="9.996" y="2.146"/><text y="3.841" class="f">➜</text><text x="2.004" y="3.841" class="f">echo</text><text x="7.014" y="3.841" class="f">&quot;fo</text></svg><svg x="726"><use xlink:href="#a"/><use xlink:href="#b" x="10.996" y="2.146"/><text y="3.841" class="f">➜</text><text x="2.004" y="3.841" class="f">echo</text><text x="7.014" y="3.841" class="f">&quot;foo</text></svg><svg x="792"><use xlink:href="#a"/><use xlink:href="#b" x="11.996" y="2.146"/><use xlink:href="#3" y="2.171"/></svg><svg x="858"><use xlink:href="#a"/><use xlink:href="#b" x="12.996" y="2.146"/><use xlink:href="#3" y="2.171"/></svg><svg x="924"><use xlink:href="#a"/><use xlink:href="#b" x="13.996" y="2.146"/><text y="3.841" class="f">➜</text><text x="2.004" y="3.841" class="f">echo</text><text x="7.014" y="3.841" class="f">&quot;foo&quot;</text><text x="13.026" y="3.841" class="f">&gt;</text></svg><svg x="990"><use xlink:href="#a"/><use xlink:href="#b" x="14.996" y="2.146"/><use xlink:href="#4" y="2.171"/></svg><svg x="1056"><use xlink:href="#a"/><use xlink:href="#b" x="15.996" y="2.146"/><use xlink:href="#4" y="2.171"/></svg><svg x="1122"><use xlink:href="#a"/><use xlink:href="#b" x="16.996" y="2.146"/><text y="3.841" class="f">➜</text><text x="2.004" y="3.841" class="f">echo</text><text x="7.014" y="3.841" class="f">&quot;foo&quot;</text><text x="13.026" y="3.841" class="f">&gt;&gt;</text><text x="16.032" y="3.841" class="f">R</text></svg><svg x="1188"><use xlink:href="#a"/><use xlink:href="#b" x="17.996" y="2.146"/><text y="3.841" class="f">➜</text><text x="2.004" y="3.841" class="f">echo</text><text x="7.014" y="3.841" class="f">&quot;foo&quot;</text><text x="13.026" y="3.841" class="f">&gt;&gt;</text><text x="16.032" y="3.841" class="f">RE</text></svg><svg x="1254"><use xlink:href="#a"/><use xlink:href="#b" x="18.996" y="2.146"/><text y="3.841" class="f">➜</text><text x="2.004" y="3.841" class="f">echo</text><text x="7.014" y="3.841" class="f">&quot;foo&quot;</text><text x="13.026" y="3.841" class="f">&gt;&gt;</text><text x="16.032" y="3.841" class="f">REA</text></svg><svg x="1320"><use xlink:href="#a"/><use xlink:href="#b" x="19.996" y="2.146"/><text y="3.841" class="f">➜</text><text x="2.004" y="3.841" class="f">echo</text><text x="7.014" y="3.841" class="f">&quot;foo&quot;</text><text x="13.026" y="3.841" class="f">&gt;&gt;</text><text x="16.032" y="3.841" class="f">READ</text></svg><svg x="1386"><use xlink:href="#a"/><use xlink:href="#b" x="20.996" y="2.146"/><text y="3.841" class="f">➜</text><text x="2.004" y="3.841" class="f">echo</text><text x="7.014" y="3.841" class="f">&quot;foo&quot;</text><text x="13.026" y="3.841" class="f">&gt;&gt;</text><text x="16.032" y="3.841" class="f">READM</text></svg><svg x="1452"><use xlink:href="#a"/><use xlink:href="#b" x="21.996" y="2.146"/><text y="3.841" class="f">➜</text><text x="2.004" y="3.841" class="f">echo</text><text x="7.014" y="3.841" class="f">&quot;foo&quot;</text><text x="13.026" y="3.841" class="f">&gt;&gt;</text><text x="16.032" y="3.841" class="f">README</text></svg><svg x="1518"><use xlink:href="#a"/><use xlink:href="#b" x="22.996" y="2.146"/><text y="3.841" class="f">➜</text><text x="2.004" y="3.841" class="f">echo</text><text x="7.014" y="3.841" class="f">&quot;foo&quot;</text><text x="13.026" y="3.841" class="f">&gt;&gt;</text><text x="16.032" y="3.841" class="f">README.</text></svg><svg x="1584"><use xlink:href="#a"/><use xlink:href="#b" x="23.996" y="2.146"/><text y="3.841" class="f">➜</text><text x="2.004" y="3.841" class="f">echo</text><text x="7.014" y="3.841" class="f">&quot;foo&quot;</text><text x="13.026" y="3.841" class="f">&gt;&gt;</text><text x="16.032" y="3.841" class="f">README.m</text></svg><svg x="1650"><use xlink:href="#a"/><use xlink:href="#b" x="24.996" y="2.146"/><use xlink:href="#5" y="2.171"/></svg><svg x="1716"><use xlink:href="#a"/><use xlink:href="#b" x="-.004" y="4.317"/><use xlink:href="#5" y="2.171"/></svg><svg x="1782"><use xlink:href="#a"/><use xlink:href="#b" x="-.004" y="4.317"/><use xlink:href="#5" y="2.171"/></svg><svg x="1848"><use xlink:href="#a"/><use xlink:href="#b" x="1.996" y="6.488"/><use xlink:href="#5" y="2.171"/><use xlink:href="#1" y="6.513"/></svg><svg x="1914"><use xlink:href="#a"/><use xlink:href="#b" x="2.996" y="6.488"/><use xlink:href="#5" y="2.171"/><use xlink:href="#6" y="6.513"/></svg><svg x="1980"><use xlink:href="#a"/><use xlink:href="#b" x="3.996" y="6.488"/><use xlink:href="#5" y="2.171"/><use xlink:href="#7" y="6.513"/></svg><svg x="2046"><use xlink:href="#a"/><use xlink:href="#b" x="4.996" y="6.488"/><use xlink:href="#5" y="2.171"/><use xlink:href="#8" y="6.513"/></svg><svg x="2112"><use xlink:href="#a"/><use xlink:href="#b" x="5.996" y="6.488"/><use xlink:href="#5" y="2.171"/><use xlink:href="#8" y="6.513"/></svg><svg x="2178"><use xlink:href="#a"/><use xlink:href="#b" x="6.996" y="6.488"/><use xlink:href="#5" y="2.171"/><text y="8.183" class="f">➜</text><text x="2.004" y="8.183" class="f">git</text><text x="6.012" y="8.183" class="f">a</text></svg><svg x="2244"><use xlink:href="#a"/><use xlink:href="#b" x="7.996" y="6.488"/><use xlink:href="#5" y="2.171"/><text y="8.183" class="f">➜</text><text x="2.004" y="8.183" class="f">git</text><text x="6.012" y="8.183" class="f">ad</text></svg><svg x="2310"><use xlink:href="#a"/><use xlink:href="#b" x="8.996" y="6.488"/><use xlink:href="#5" y="2.171"/><use xlink:href="#9" y="6.513"/></svg><svg x="2376"><use xlink:href="#a"/><use xlink:href="#b" x="9.996" y="6.488"/><use xlink:href="#5" y="2.171"/><use xlink:href="#9" y="6.513"/></svg><svg x="2442"><use xlink:href="#a"/><use xlink:href="#b" x="10.996" y="6.488"/><use xlink:href="#5" y="2.171"/><text y="8.183" class="f">➜</text><text x="2.004" y="8.183" class="f">git</text><text x="6.012" y="8.183" class="f">add</text><text x="10.02" y="8.183" class="f">R</text></svg><svg x="2508"><use xlink:href="#a"/><use xlink:href="#b" x="11.996" y="6.488"/><use xlink:href="#5" y="2.171"/><text y="8.183" class="f">➜</text><text x="2.004" y="8.183" class="f">git</text><text x="6.012" y="8.183" class="f">add</text><text x="10.02" y="8.183" class="f">RE</text></svg><svg x="2574"><use xlink:href="#a"/><use xlink:href="#b" x="12.996" y="6.488"/><use xlink:href="#5" y="2.171"/><text y="8.183" class="f">➜</text><text x="2.004" y="8.183" class="f">git</text><text x="6.012" y="8.183" class="f">add</text><text x="10.02" y="8.183" class="f">REA</text></svg><svg x="2640"><use xlink:href="#a"/><use xlink:href="#b" x="13.996" y="6.488"/><use xlink:href="#5" y="2.171"/><text y="8.183" class="f">➜</text><text x="2.004" y="8.183" class="f">git</text><text x="6.012" y="8.183" class="f">add</text><text x="10.02" y="8.183" class="f">READ</text></svg><svg x="2706"><use xlink:href="#a"/><use xlink:href="#b" x="14.996" y="6.488"/><use xlink:href="#5" y="2.171"/><text y="8.183" class="f">➜</text><text x="2.004" y="8.183" class="f">git</text><text x="6.012" y="8.183" class="f">add</text><text x="10.02" y="8.183" class="f">READM</text></svg><svg x="2772"><use xlink:href="#a"/><use xlink:href="#b" x="15.996" y="6.488"/><use xlink:href="#5" y="2.171"/><text y="8.183" class="f">➜</text><text x="2.004" y="8.183" class="f">git</text><text x="6.012" y="8.183" class="f">add</text><text x="10.02" y="8.183" class="f">README</text></svg><svg x="2838"><use xlink:href="#a"/><use xlink:href="#b" x="16.996" y="6.488"/><use xlink:href="#5" y="2.171"/><text y="8.183" class="f">➜</text><text x="2.004" y="8.183" class="f">git</text><text x="6.012" y="8.183" class="f">add</text><text x="10.02" y="8.183" class="f">README.</text></svg><svg x="2904"><use xlink:href="#a"/><use xlink:href="#b" x="17.996" y="6.488"/><use xlink:href="#5" y="2.171"/><text y="8.183" class="f">➜</text><text x="2.004" y="8.183" class="f">git</text><text x="6.012" y="8.183" class="f">add</text><text x="10.02" y="8.183" class="f">README.m</text></svg><svg x="2970"><use xlink:href="#a"/><use xlink:href="#b" x="18.996" y="6.488"/><use xlink:href="#5" y="2.171"/><use xlink:href="#10" y="6.513"/></svg><svg x="3036"><use xlink:href="#a"/><use xlink:href="#b" x="-.004" y="8.659"/><use xlink:href="#5" y="2.171"/><use xlink:href="#10" y="6.513"/></svg><svg x="3102"><use xlink:href="#a"/><use xlink:href="#b" x="-.004" y="8.659"/><use xlink:href="#5" y="2.171"/><use xlink:href="#10" y="6.513"/></svg><svg x="3168"><use xlink:href="#a"/><use xlink:href="#b" x="1.996" y="10.83"/><use xlink:href="#5" y="2.171"/><use xlink:href="#10" y="6.513"/><use xlink:href="#1" y="10.855"/></svg><svg x="3234"><use xlink:href="#a"/><use xlink:href="#b" x="2.996" y="10.83"/><use xlink:href="#5" y="2.171"/><use xlink:href="#10" y="6.513"/><use xlink:href="#6" y="10.855"/></svg><svg x="3300"><use xlink:href="#a"/><use xlink:href="#b" x="3.996" y="10.83"/><use xlink:href="#5" y="2.171"/><use xlink:href="#10" y="6.513"/><use xlink:href="#7" y="10.855"/></svg><svg x="3366"><use xlink:href="#a"/><use xlink:href="#b" x="4.996" y="10.83"/><use xlink:href="#5" y="2.171"/><use xlink:href="#10" y="6.513"/><use xlink:href="#8" y="10.855"/></svg><svg x="3432"><use xlink:href="#a"/><use xlink:href="#b" x="5.996" y="10.83"/><use xlink:href="#5" y="2.171"/><use xlink:href="#10" y="6.513"/><use xlink:href="#8" y="10.855"/></svg><svg x="3498"><use xlink:href="#a"/><use xlink:href="#b" x="6.996" y="10.83"/><use xlink:href="#5" y="2.171"/><use xlink:href="#10" y="6.513"/><text y="12.525" class="f">➜</text><text x="2.004" y="12.525" class="f">git</text><text x="6.012" y="12.525" class="f">c</text></svg><svg x="3564"><use xlink:href="#a"/><use xlink:href="#b" x="7.996" y="10.83"/><use xlink:href="#5" y="2.171"/><use xlink:href="#10" y="6.513"/><text y="12.525" class="f">➜</text><text x="2.004" y="12.525" class="f">git</text><text x="6.012" y="12.525" class="f">co</text></svg><svg x="3630"><use xlink:href="#a"/><use xlink:href="#b" x="8.996" y="10.83"/><use xlink:href="#5" y="2.171"/><use xlink:href="#10" y="6.513"/><text y="12.525" class="f">➜</text><text x="2.004" y="12.525" class="f">git</text><text x="6.012" y="12.525" class="f">com</text></svg><svg x="3696"><use xlink:href="#a"/><use xlink:href="#b" x="9.996" y="10.83"/><use xlink:href="#5" y="2.171"/><use xlink:href="#10" y="6.513"/><text y="12.525" class="f">➜</text><text x="2.004" y="12.525" class="f">git</text><text x="6.012" y="12.525" class="f">comm</text></svg><svg x="3762"><use xlink:href="#a"/><use xlink:href="#b" x="10.996" y="10.83"/><use xlink:href="#5" y="2.171"/><use xlink:href="#10" y="6.513"/><text y="12.525" class="f">➜</text><text x="2.004" y="12.525" class="f">git</text><text x="6.012" y="12.525" class="f">commi</text></svg><svg x="3828"><use xlink:href="#a"/><use xlink:href="#b" x="11.996" y="10.83"/><use xlink:href="#5" y="2.171"/><use xlink:href="#10" y="6.513"/><use xlink:href="#11" y="10.855"/></svg><svg x="3894"><use xlink:href="#a"/><use xlink:href="#b" x="12.996" y="10.83"/><use xlink:href="#5" y="2.171"/><use xlink:href="#10" y="6.513"/><use xlink:href="#11" y="10.855"/></svg><svg x="3960"><use xlink:href="#a"/><use xlink:href="#b" x="13.996" y="10.83"/><use xlink:href="#5" y="2.171"/><use xlink:href="#10" y="6.513"/><text y="12.525" class="f">➜</text><text x="2.004" y="12.525" class="f">git</text><text x="6.012" y="12.525" class="f">commit</text><text x="13.026" y="12.525" class="f">-</text></svg><svg x="4026"><use xlink:href="#a"/><use xlink:href="#b" x="14.996" y="10.83"/><use xlink:href="#5" y="2.171"/><use xlink:href="#10" y="6.513"/><use xlink:href="#12" y="10.855"/></svg><svg x="4092"><use xlink:href="#a"/><use xlink:href="#b" x="15.996" y="10.83"/><use xlink:href="#5" y="2.171"/><use xlink:href="#10" y="6.513"/><use xlink:href="#12" y="10.855"/></svg><svg x="4158"><use xlink:href="#a"/><use xlink:href="#b" x="16.996" y="10.83"/><use xlink:href="#5" y="2.171"/><use xlink:href="#10" y="6.513"/><text y="12.525" class="f">➜</text><text x="2.004" y="12.525" class="f">git</text><text x="6.012" y="12.525" class="f">commit</text><text x="13.026" y="12.525" class="f">-m</text><text x="16.032" y="12.525" class="f">&quot;</text></svg><svg x="4224"><use xlink:href="#a"/><use xlink:href="#b" x="17.996" y="10.83"/><use xlink:href="#5" y="2.171"/><use xlink:href="#10" y="6.513"/><text y="12.525" class="f">➜</text><text x="2.004" y="12.525" class="f">git</text><text x="6.012" y="12.525" class="f">commit</text><text x="13.026" y="12.525" class="f">-m</text><text x="16.032" y="12.525" class="f">&quot;A</text></svg><svg x="4290"><use xlink:href="#a"/><use xlink:href="#b" x="18.996" y="10.83"/><use xlink:href="#5" y="2.171"/><use xlink:href="#10" y="6.513"/><text y="12.525" class="f">➜</text><text x="2.004" y="12.525" class="f">git</text><text x="6.012" y="12.525" class="f">commit</text><text x="13.026" y="12.525" class="f">-m</text><text x="16.032" y="12.525" class="f">&quot;Aj</text></svg><svg x="4356"><use xlink:href="#a"/><use xlink:href="#b" x="19.996" y="10.83"/><use xlink:href="#5" y="2.171"/><use xlink:href="#10" y="6.513"/><text y="12.525" class="f">➜</text><text x="2.004" y="12.525" class="f">git</text><text x="6.012" y="12.525" class="f">commit</text><text x="13.026" y="12.525" class="f">-m</text><text x="16.032" y="12.525" class="f">&quot;Ajo</text></svg><svg x="4422"><use xlink:href="#a"/><use xlink:href="#b" x="20.996" y="10.83"/><use xlink:href="#5" y="2.171"/><use xlink:href="#10" y="6.513"/><text y="12.525" class="f">➜</text><text x="2.004" y="12.525" class="f">git</text><text x="6.012" y="12.525" class="f">commit</text><text x="13.026" y="12.525" class="f">-m</text><text x="16.032" y="12.525" class="f">&quot;Ajou</text></svg><svg x="4488"><use xlink:href="#a"/><use xlink:href="#b" x="21.996" y="10.83"/><use xlink:href="#5" y="2.171"/><use xlink:href="#10" y="6.513"/><text y="12.525" class="f">➜</text><text x="2.004" y="12.525" class="f">git</text><text x="6.012" y="12.525" class="f">commit</text><text x="13.026" y="12.525" class="f">-m</text><text x="16.032" y="12.525" class="f">&quot;Ajout</text></svg><svg x="4554"><use xlink:href="#a"/><use xlink:href="#b" x="22.996" y="10.83"/><use xlink:href="#5" y="2.171"/><use xlink:href="#10" y="6.513"/><use xlink:href="#13" y="10.855"/></svg><svg x="4620"><use xlink:href="#a"/><use xlink:href="#b" x="23.996" y="10.83"/><use xlink:href="#5" y="2.171"/><use xlink:href="#10" y="6.513"/><use xlink:href="#13" y="10.855"/></svg><svg x="4686"><use xlink:href="#a"/><use xlink:href="#b" x="24.996" y="10.83"/><use xlink:href="#5" y="2.171"/><use xlink:href="#10" y="6.513"/><text y="12.525" class="f">➜</text><text x="2.004" y="12.525" class="f">git</text><text x="6.012" y="12.525" class="f">commit</text><text x="13.026" y="12.525" class="f">-m</text><text x="16.032" y="12.525" class="f">&quot;Ajoute</text><text x="24.048" y="12.525" class="f">&apos;</text></svg><svg x="4752"><use xlink:href="#a"/><use xlink:href="#b" x="25.996" y="10.83"/><use xlink:href="#5" y="2.171"/><use xlink:href="#10" y="6.513"/><text y="12.525" class="f">➜</text><text x="2.004" y="12.525" class="f">git</text><text x="6.012" y="12.525" class="f">commit</text><text x="13.026" y="12.525" class="f">-m</text><text x="16.032" y="12.525" class="f">&quot;Ajoute</text><text x="24.048" y="12.525" class="f">&apos;f</text></svg><svg x="4818"><use xlink:href="#a"/><use xlink:href="#b" x="26.996" y="10.83"/><use xlink:href="#5" y="2.171"/><use xlink:href="#10" y="6.513"/><text y="12.525" class="f">➜</text><text x="2.004" y="12.525" class="f">git</text><text x="6.012" y="12.525" class="f">commit</text><text x="13.026" y="12.525" class="f">-m</text><text x="16.032" y="12.525" class="f">&quot;Ajoute</text><text x="24.048" y="12.525" class="f">&apos;fo</text></svg><svg x="4884"><use xlink:href="#a"/><use xlink:href="#b" x="27.996" y="10.83"/><use xlink:href="#5" y="2.171"/><use xlink:href="#10" y="6.513"/><text y="12.525" class="f">➜</text><text x="2.004" y="12.525" class="f">git</text><text x="6.012" y="12.525" class="f">commit</text><text x="13.026" y="12.525" class="f">-m</text><text x="16.032" y="12.525" class="f">&quot;Ajoute</text><text x="24.048" y="12.525" class="f">&apos;foo</text></svg><svg x="4950"><use xlink:href="#a"/><use xlink:href="#b" x="28.996" y="10.83"/><use xlink:href="#5" y="2.171"/><use xlink:href="#10" y="6.513"/><use xlink:href="#14" y="10.855"/></svg><svg x="5016"><use xlink:href="#a"/><use xlink:href="#b" x="29.996" y="10.83"/><use xlink:href="#5" y="2.171"/><use xlink:href="#10" y="6.513"/><use xlink:href="#14" y="10.855"/></svg><svg x="5082"><use xlink:href="#a"/><use xlink:href="#b" x="30.996" y="10.83"/><use xlink:href="#5" y="2.171"/><use xlink:href="#10" y="6.513"/><text y="12.525" class="f">➜</text><text x="2.004" y="12.525" class="f">git</text><text x="6.012" y="12.525" class="f">commit</text><text x="13.026" y="12.525" class="f">-m</text><text x="16.032" y="12.525" class="f">&quot;Ajoute</text><text x="24.048" y="12.525" class="f">&apos;foo&apos;</text><text x="30.06" y="12.525" class="f">a</text></svg><svg x="5148"><use xlink:href="#a"/><use xlink:href="#b" x="31.996" y="10.83"/><use xlink:href="#5" y="2.171"/><use xlink:href="#10" y="6.513"/><use xlink:href="#15" y="10.855"/></svg><svg x="5214"><use xlink:href="#a"/><use xlink:href="#b" x="32.996" y="10.83"/><use xlink:href="#5" y="2.171"/><use xlink:href="#10" y="6.513"/><use xlink:href="#15" y="10.855"/></svg><svg x="5280"><use xlink:href="#a"/><use xlink:href="#b" x="33.996" y="10.83"/><use xlink:href="#5" y="2.171"/><use xlink:href="#10" y="6.513"/><text y="12.525" class="f">➜</text><text x="2.004" y="12.525" class="f">git</text><text x="6.012" y="12.525" class="f">commit</text><text x="13.026" y="12.525" class="f">-m</text><text x="16.032" y="12.525" class="f">&quot;Ajoute</text><text x="24.048" y="12.525" class="f">&apos;foo&apos;</text><text x="30.06" y="12.525" class="f">au</text><text x="33.066" y="12.525" class="f">R</text></svg><svg x="5346"><use xlink:href="#a"/><use xlink:href="#b" x="34.996" y="10.83"/><use xlink:href="#5" y="2.171"/><use xlink:href="#10" y="6.513"/><text y="12.525" class="f">➜</text><text x="2.004" y="12.525" class="f">git</text><text x="6.012" y="12.525" class="f">commit</text><text x="13.026" y="12.525" class="f">-m</text><text x="16.032" y="12.525" class="f">&quot;Ajoute</text><text x="24.048" y="12.525" class="f">&apos;foo&apos;</text><text x="30.06" y="12.525" class="f">au</text><text x="33.066" y="12.525" class="f">Re</text></svg><svg x="5412"><use xlink:href="#a"/><use xlink:href="#b" x="35.996" y="10.83"/><use xlink:href="#5" y="2.171"/><use xlink:href="#10" y="6.513"/><text y="12.525" class="f">➜</text><text x="2.004" y="12.525" class="f">git</text><text x="6.012" y="12.525" class="f">commit</text><text x="13.026" y="12.525" class="f">-m</text><text x="16.032" y="12.525" class="f">&quot;Ajoute</text><text x="24.048" y="12.525" class="f">&apos;foo&apos;</text><text x="30.06" y="12.525" class="f">au</text><text x="33.066" y="12.525" class="f">Rea</text></svg><svg x="5478"><use xlink:href="#a"/><use xlink:href="#b" x="36.996" y="10.83"/><use xlink:href="#5" y="2.171"/><use xlink:href="#10" y="6.513"/><text y="12.525" class="f">➜</text><text x="2.004" y="12.525" class="f">git</text><text x="6.012" y="12.525" class="f">commit</text><text x="13.026" y="12.525" class="f">-m</text><text x="16.032" y="12.525" class="f">&quot;Ajoute</text><text x="24.048" y="12.525" class="f">&apos;foo&apos;</text><text x="30.06" y="12.525" class="f">au</text><text x="33.066" y="12.525" class="f">Read</text></svg><svg x="5544"><use xlink:href="#a"/><use xlink:href="#b" x="37.996" y="10.83"/><use xlink:href="#5" y="2.171"/><use xlink:href="#10" y="6.513"/><text y="12.525" class="f">➜</text><text x="2.004" y="12.525" class="f">git</text><text x="6.012" y="12.525" class="f">commit</text><text x="13.026" y="12.525" class="f">-m</text><text x="16.032" y="12.525" class="f">&quot;Ajoute</text><text x="24.048" y="12.525" class="f">&apos;foo&apos;</text><text x="30.06" y="12.525" class="f">au</text><text x="33.066" y="12.525" class="f">Readm</text></svg><svg x="5610"><use xlink:href="#a"/><use xlink:href="#b" x="38.996" y="10.83"/><use xlink:href="#5" y="2.171"/><use xlink:href="#10" y="6.513"/><text y="12.525" class="f">➜</text><text x="2.004" y="12.525" class="f">git</text><text x="6.012" y="12.525" class="f">commit</text><text x="13.026" y="12.525" class="f">-m</text><text x="16.032" y="12.525" class="f">&quot;Ajoute</text><text x="24.048" y="12.525" class="f">&apos;foo&apos;</text><text x="30.06" y="12.525" class="f">au</text><text x="33.066" y="12.525" class="f">Readme</text></svg><svg x="5676"><use xlink:href="#a"/><use xlink:href="#b" x="39.996" y="10.83"/><use xlink:href="#5" y="2.171"/><use xlink:href="#10" y="6.513"/><text y="12.525" class="f">➜</text><text x="2.004" y="12.525" class="f">git</text><text x="6.012" y="12.525" class="f">commit</text><text x="13.026" y="12.525" class="f">-m</text><text x="16.032" y="12.525" class="f">&quot;Ajoute</text><text x="24.048" y="12.525" class="f">&apos;foo&apos;</text><text x="30.06" y="12.525" class="f">au</text><text x="33.066" y="12.525" class="f">Readme.</text></svg><svg x="5742"><use xlink:href="#a"/><use xlink:href="#b" x="40.996" y="10.83"/><use xlink:href="#5" y="2.171"/><use xlink:href="#10" y="6.513"/><use xlink:href="#16" y="10.855"/></svg><svg x="5808"><use xlink:href="#a"/><use xlink:href="#b" x="-.004" y="13.001"/><use xlink:href="#5" y="2.171"/><use xlink:href="#10" y="6.513"/><use xlink:href="#16" y="10.855"/></svg><svg x="5874"><use xlink:href="#a"/><use xlink:href="#b" x="-.004" y="15.172"/><use xlink:href="#5" y="2.171"/><use xlink:href="#10" y="6.513"/><use xlink:href="#16" y="10.855"/><use xlink:href="#17" y="13.026"/></svg><svg x="5940"><use xlink:href="#a"/><use xlink:href="#b" x="-.004" y="17.343"/><use xlink:href="#5" y="2.171"/><use xlink:href="#10" y="6.513"/><use xlink:href="#16" y="10.855"/><use xlink:href="#17" y="13.026"/><use xlink:href="#18" y="15.197"/></svg><svg x="6006"><use xlink:href="#a"/><use xlink:href="#b" x="-.004" y="17.343"/><use xlink:href="#5" y="2.171"/><use xlink:href="#10" y="6.513"/><use xlink:href="#16" y="10.855"/><use xlink:href="#17" y="13.026"/><use xlink:href="#18" y="15.197"/></svg><svg x="6072"><use xlink:href="#a"/><use xlink:href="#b" x="1.996" y="19.514"/><use xlink:href="#5" y="2.171"/><use xlink:href="#10" y="6.513"/><use xlink:href="#16" y="10.855"/><use xlink:href="#17" y="13.026"/><use xlink:href="#18" y="15.197"/><use xlink:href="#1" y="19.539"/></svg><svg x="6138"><use xlink:href="#a"/><use xlink:href="#b" x="-.004" y="23.856"/><use xlink:href="#5" y="2.171"/><use xlink:href="#10" y="6.513"/><use xlink:href="#16" y="10.855"/><use xlink:href="#17" y="13.026"/><use xlink:href="#18" y="15.197"/><use xlink:href="#1" y="19.539"/><text y="23.38" class="f">exit</text></svg></svg></g></g></svg></svg>