<svg xmlns="http://www.w3.org/2000/svg" xmlns:xlink="http://www.w3.org/1999/xlink" width="700" height="385.65"><rect width="700" height="385.65" rx="5" ry="5" class="a"/><svg y="0%" x="0%"><circle cx="20" cy="20" r="6" fill="#ff5f58"/><circle cx="40" cy="20" r="6" fill="#ffbd2e"/><circle cx="60" cy="20" r="6" fill="#18c132"/></svg><svg height="325.65" viewBox="0 0 66 32.565" width="660" x="15" xmlns="http://www.w3.org/2000/svg" xmlns:xlink="http://www.w3.org/1999/xlink" y="50"><style>@keyframes k{0%{transform:translateX(0)}.1%{transform:translateX(-132px)}4.1%{transform:translateX(-198px)}4.5%{transform:translateX(-264px)}5.2%{transform:translateX(-330px)}5.5%{transform:translateX(-396px)}6.7%{transform:translateX(-462px)}7%{transform:translateX(-528px)}8%{transform:translateX(-594px)}9.2%{transform:translateX(-660px)}11.2%{transform:translateX(-726px)}13.3%{transform:translateX(-792px)}14.3%{transform:translateX(-858px)}14.7%{transform:translateX(-924px)}15.5%{transform:translateX(-990px)}17.4%{transform:translateX(-1056px)}18.9%{transform:translateX(-1122px)}19.3%{transform:translateX(-1188px)}20.1%{transform:translateX(-1254px)}20.9%{transform:translateX(-1320px)}21.4%{transform:translateX(-1386px)}22.3%{transform:translateX(-1452px)}23.5%{transform:translateX(-1518px)}25.3%{transform:translateX(-1584px)}26.1%{transform:translateX(-1650px)}26.5%{transform:translateX(-1716px)}29.3%{transform:translateX(-1782px)}31.2%{transform:translateX(-1848px)}31.7%{transform:translateX(-1914px)}33.5%{transform:translateX(-1980px)}35%{transform:translateX(-2046px)}35.5%{transform:translateX(-2112px)}36.8%{transform:translateX(-2178px)}46.1%{transform:translateX(-2244px)}52.2%{transform:translateX(-2310px)}52.7%{transform:translateX(-2376px)}54.1%{transform:translateX(-2442px)}54.8%{transform:translateX(-2508px)}56.2%{transform:translateX(-2574px)}57.2%{transform:translateX(-2640px)}58.6%{transform:translateX(-2706px)}58.9%{transform:translateX(-2772px)}59.7%{transform:translateX(-2838px)}61%{transform:translateX(-2904px)}61.1%{transform:translateX(-2970px)}67.4%{transform:translateX(-3036px)}67.7%{transform:translateX(-3168px)}67.9%{transform:translateX(-3300px)}68.3%{transform:translateX(-3432px)}74.7%{transform:translateX(-3498px)}75.2%{transform:translateX(-3564px)}75.7%{transform:translateX(-3630px)}79.4%{transform:translateX(-3696px)}80.5%{transform:translateX(-3762px)}82.1%{transform:translateX(-3828px)}82.9%{transform:translateX(-3894px)}83.7%{transform:translateX(-3960px)}84.9%{transform:translateX(-4158px)}89.4%{transform:translateX(-4224px)}89.9%{transform:translateX(-4290px)}90.6%{transform:translateX(-4356px)}90.7%{transform:translateX(-4554px)}to{transform:translateX(-4686px)}}.a{fill:#282d35}.f{fill:#a8cc8c;white-space:pre}</style><g font-family="Monaco,Consolas,Menlo,'Bitstream Vera Sans Mono','Powerline Symbols',monospace" font-size="1.67"><defs><symbol id="1"><text y="1.67" class="f">➜</text></symbol><symbol id="2"><text y="1.67" class="f">➜</text><text x="2.004" y="1.67" class="f">git</text></symbol><symbol id="3"><text y="1.67" class="f">➜</text><text x="2.004" y="1.67" class="f">git</text><text x="6.012" y="1.67" class="f">clone</text></symbol><symbol id="4"><text y="1.67" class="f">➜</text><text x="2.004" y="1.67" class="f">git</text><text x="6.012" y="1.67" class="f">clone</text><text x="12.024" y="1.67" class="f">git@github.com:ps-pat/dummy.git</text></symbol><symbol id="5"><text y="1.67" class="f">Cloning</text><text x="8.016" y="1.67" class="f">into</text><text x="13.026" y="1.67" class="f">&apos;dummy&apos;...</text></symbol><symbol id="6"><text y="1.67" class="f">remote:</text><text x="8.016" y="1.67" class="f">Enumerating</text><text x="20.04" y="1.67" class="f">objects:</text><text x="29.058" y="1.67" class="f">4,</text><text x="32.064" y="1.67" class="f">done.</text></symbol><symbol id="7"><text y="1.67" class="f">remote:</text><text x="8.016" y="1.67" class="f">Counting</text><text x="17.034" y="1.67" class="f">objects:</text><text x="26.052" y="1.67" class="f">100%</text><text x="31.062" y="1.67" class="f">(4/4),</text><text x="38.076" y="1.67" class="f">done.</text></symbol><symbol id="8"><text y="1.67" class="f">remote:</text><text x="8.016" y="1.67" class="f">Compressing</text><text x="20.04" y="1.67" class="f">objects:</text><text x="29.058" y="1.67" class="f">100%</text><text x="34.068" y="1.67" class="f">(3/3),</text><text x="41.082" y="1.67" class="f">done.</text></symbol><symbol id="9"><text y="1.67" class="f">Receiving</text><text x="10.02" y="1.67" class="f">objects:</text><text x="19.038" y="1.67" class="f">100%</text><text x="24.048" y="1.67" class="f">(4/4),</text><text x="31.062" y="1.67" class="f">12.48</text><text x="37.074" y="1.67" class="f">KiB</text><text x="41.082" y="1.67" class="f">|</text><text x="43.086" y="1.67" class="f">608.00</text><text x="50.1" y="1.67" class="f">KiB/s,</text><text x="57.114" y="1.67" class="f">done.</text></symbol><symbol id="10"><text y="1.67" class="f">remote:</text><text x="8.016" y="1.67" class="f">Total</text><text x="14.028" y="1.67" class="f">4</text><text x="16.032" y="1.67" class="f">(delta</text><text x="23.046" y="1.67" class="f">0),</text><text x="27.054" y="1.67" class="f">reused</text><text x="34.068" y="1.67" class="f">0</text><text x="36.072" y="1.67" class="f">(delta</text><text x="43.086" y="1.67" class="f">0),</text><text x="47.094" y="1.67" class="f">pack-reused</text><text x="59.118" y="1.67" class="f">0</text></symbol><symbol id="11"><text y="1.67" class="f">➜</text><text x="2.004" y="1.67" class="f">cd</text></symbol><symbol id="12"><text y="1.67" class="f">➜</text><text x="2.004" y="1.67" class="f">cd</text><text x="5.01" y="1.67" class="f">dummy</text></symbol><symbol id="13"><text y="1.67" class="f">➜</text><text x="2.004" y="1.67" class="f">ls</text></symbol><symbol id="14"><text y="1.67" style="white-space:pre" fill="#dbab79" text-decoration="underline">LICENSE</text><text x="9.018" y="1.67" style="white-space:pre" fill="#e88388" text-decoration="underline">README.md</text></symbol><symbol id="a"><path fill="transparent" d="M0 0h66v16H0z"/></symbol><symbol id="b"><path fill="#6f7683" d="M0 0h1.102v2.171H0z"/></symbol></defs><path class="a" d="M0 0h66v32.565H0z"/><g style="animation-duration:15.540331s;animation-iteration-count:infinite;animation-name:k;animation-timing-function:steps(1,end)"><svg width="4752"><svg><use xlink:href="#a"/><use xlink:href="#b" x="-.004"/></svg><svg x="66"><use xlink:href="#a"/><use xlink:href="#b" x="-.004"/></svg><svg x="132"><use xlink:href="#a"/><use xlink:href="#b" x="1.996" y="2.146"/><use xlink:href="#1" y="2.171"/></svg><svg x="198"><use xlink:href="#a"/><use xlink:href="#b" x="2.996" y="2.146"/><text y="3.841" class="f">➜</text><text x="2.004" y="3.841" class="f">g</text></svg><svg x="264"><use xlink:href="#a"/><use xlink:href="#b" x="3.996" y="2.146"/><text y="3.841" class="f">➜</text><text x="2.004" y="3.841" class="f">gi</text></svg><svg x="330"><use xlink:href="#a"/><use xlink:href="#b" x="4.996" y="2.146"/><use xlink:href="#2" y="2.171"/></svg><svg x="396"><use xlink:href="#a"/><use xlink:href="#b" x="5.996" y="2.146"/><use xlink:href="#2" y="2.171"/></svg><svg x="462"><use xlink:href="#a"/><use xlink:href="#b" x="6.996" y="2.146"/><text y="3.841" class="f">➜</text><text x="2.004" y="3.841" class="f">git</text><text x="6.012" y="3.841" class="f">c</text></svg><svg x="528"><use xlink:href="#a"/><use xlink:href="#b" x="7.996" y="2.146"/><text y="3.841" class="f">➜</text><text x="2.004" y="3.841" class="f">git</text><text x="6.012" y="3.841" class="f">cl</text></svg><svg x="594"><use xlink:href="#a"/><use xlink:href="#b" x="8.996" y="2.146"/><text y="3.841" class="f">➜</text><text x="2.004" y="3.841" class="f">git</text><text x="6.012" y="3.841" class="f">clo</text></svg><svg x="660"><use xlink:href="#a"/><use xlink:href="#b" x="9.996" y="2.146"/><text y="3.841" class="f">➜</text><text x="2.004" y="3.841" class="f">git</text><text x="6.012" y="3.841" class="f">clon</text></svg><svg x="726"><use xlink:href="#a"/><use xlink:href="#b" x="10.996" y="2.146"/><use xlink:href="#3" y="2.171"/></svg><svg x="792"><use xlink:href="#a"/><use xlink:href="#b" x="11.996" y="2.146"/><use xlink:href="#3" y="2.171"/></svg><svg x="858"><use xlink:href="#a"/><use xlink:href="#b" x="12.996" y="2.146"/><text y="3.841" class="f">➜</text><text x="2.004" y="3.841" class="f">git</text><text x="6.012" y="3.841" class="f">clone</text><text x="12.024" y="3.841" class="f">g</text></svg><svg x="924"><use xlink:href="#a"/><use xlink:href="#b" x="13.996" y="2.146"/><text y="3.841" class="f">➜</text><text x="2.004" y="3.841" class="f">git</text><text x="6.012" y="3.841" class="f">clone</text><text x="12.024" y="3.841" class="f">gi</text></svg><svg x="990"><use xlink:href="#a"/><use xlink:href="#b" x="14.996" y="2.146"/><text y="3.841" class="f">➜</text><text x="2.004" y="3.841" class="f">git</text><text x="6.012" y="3.841" class="f">clone</text><text x="12.024" y="3.841" class="f">git</text></svg><svg x="1056"><use xlink:href="#a"/><use xlink:href="#b" x="15.996" y="2.146"/><text y="3.841" class="f">➜</text><text x="2.004" y="3.841" class="f">git</text><text x="6.012" y="3.841" class="f">clone</text><text x="12.024" y="3.841" class="f">git@</text></svg><svg x="1122"><use xlink:href="#a"/><use xlink:href="#b" x="16.996" y="2.146"/><text y="3.841" class="f">➜</text><text x="2.004" y="3.841" class="f">git</text><text x="6.012" y="3.841" class="f">clone</text><text x="12.024" y="3.841" class="f">git@g</text></svg><svg x="1188"><use xlink:href="#a"/><use xlink:href="#b" x="17.996" y="2.146"/><text y="3.841" class="f">➜</text><text x="2.004" y="3.841" class="f">git</text><text x="6.012" y="3.841" class="f">clone</text><text x="12.024" y="3.841" class="f">git@gi</text></svg><svg x="1254"><use xlink:href="#a"/><use xlink:href="#b" x="18.996" y="2.146"/><text y="3.841" class="f">➜</text><text x="2.004" y="3.841" class="f">git</text><text x="6.012" y="3.841" class="f">clone</text><text x="12.024" y="3.841" class="f">git@git</text></svg><svg x="1320"><use xlink:href="#a"/><use xlink:href="#b" x="19.996" y="2.146"/><text y="3.841" class="f">➜</text><text x="2.004" y="3.841" class="f">git</text><text x="6.012" y="3.841" class="f">clone</text><text x="12.024" y="3.841" class="f">git@gith</text></svg><svg x="1386"><use xlink:href="#a"/><use xlink:href="#b" x="20.996" y="2.146"/><text y="3.841" class="f">➜</text><text x="2.004" y="3.841" class="f">git</text><text x="6.012" y="3.841" class="f">clone</text><text x="12.024" y="3.841" class="f">git@githu</text></svg><svg x="1452"><use xlink:href="#a"/><use xlink:href="#b" x="21.996" y="2.146"/><text y="3.841" class="f">➜</text><text x="2.004" y="3.841" class="f">git</text><text x="6.012" y="3.841" class="f">clone</text><text x="12.024" y="3.841" class="f">git@github</text></svg><svg x="1518"><use xlink:href="#a"/><use xlink:href="#b" x="22.996" y="2.146"/><text y="3.841" class="f">➜</text><text x="2.004" y="3.841" class="f">git</text><text x="6.012" y="3.841" class="f">clone</text><text x="12.024" y="3.841" class="f">git@github.</text></svg><svg x="1584"><use xlink:href="#a"/><use xlink:href="#b" x="23.996" y="2.146"/><text y="3.841" class="f">➜</text><text x="2.004" y="3.841" class="f">git</text><text x="6.012" y="3.841" class="f">clone</text><text x="12.024" y="3.841" class="f">git@github.c</text></svg><svg x="1650"><use xlink:href="#a"/><use xlink:href="#b" x="24.996" y="2.146"/><text y="3.841" class="f">➜</text><text x="2.004" y="3.841" class="f">git</text><text x="6.012" y="3.841" class="f">clone</text><text x="12.024" y="3.841" class="f">git@github.co</text></svg><svg x="1716"><use xlink:href="#a"/><use xlink:href="#b" x="25.996" y="2.146"/><text y="3.841" class="f">➜</text><text x="2.004" y="3.841" class="f">git</text><text x="6.012" y="3.841" class="f">clone</text><text x="12.024" y="3.841" class="f">git@github.com</text></svg><svg x="1782"><use xlink:href="#a"/><use xlink:href="#b" x="26.996" y="2.146"/><text y="3.841" class="f">➜</text><text x="2.004" y="3.841" class="f">git</text><text x="6.012" y="3.841" class="f">clone</text><text x="12.024" y="3.841" class="f">git@github.com:</text></svg><svg x="1848"><use xlink:href="#a"/><use xlink:href="#b" x="27.996" y="2.146"/><text y="3.841" class="f">➜</text><text x="2.004" y="3.841" class="f">git</text><text x="6.012" y="3.841" class="f">clone</text><text x="12.024" y="3.841" class="f">git@github.com:p</text></svg><svg x="1914"><use xlink:href="#a"/><use xlink:href="#b" x="28.996" y="2.146"/><text y="3.841" class="f">➜</text><text x="2.004" y="3.841" class="f">git</text><text x="6.012" y="3.841" class="f">clone</text><text x="12.024" y="3.841" class="f">git@github.com:ps</text></svg><svg x="1980"><use xlink:href="#a"/><use xlink:href="#b" x="29.996" y="2.146"/><text y="3.841" class="f">➜</text><text x="2.004" y="3.841" class="f">git</text><text x="6.012" y="3.841" class="f">clone</text><text x="12.024" y="3.841" class="f">git@github.com:ps-</text></svg><svg x="2046"><use xlink:href="#a"/><use xlink:href="#b" x="30.996" y="2.146"/><text y="3.841" class="f">➜</text><text x="2.004" y="3.841" class="f">git</text><text x="6.012" y="3.841" class="f">clone</text><text x="12.024" y="3.841" class="f">git@github.com:ps-p</text></svg><svg x="2112"><use xlink:href="#a"/><use xlink:href="#b" x="31.996" y="2.146"/><text y="3.841" class="f">➜</text><text x="2.004" y="3.841" class="f">git</text><text x="6.012" y="3.841" class="f">clone</text><text x="12.024" y="3.841" class="f">git@github.com:ps-pa</text></svg><svg x="2178"><use xlink:href="#a"/><use xlink:href="#b" x="32.996" y="2.146"/><text y="3.841" class="f">➜</text><text x="2.004" y="3.841" class="f">git</text><text x="6.012" y="3.841" class="f">clone</text><text x="12.024" y="3.841" class="f">git@github.com:ps-pat</text></svg><svg x="2244"><use xlink:href="#a"/><use xlink:href="#b" x="33.996" y="2.146"/><text y="3.841" class="f">➜</text><text x="2.004" y="3.841" class="f">git</text><text x="6.012" y="3.841" class="f">clone</text><text x="12.024" y="3.841" class="f">git@github.com:ps-pat/</text></svg><svg x="2310"><use xlink:href="#a"/><use xlink:href="#b" x="34.996" y="2.146"/><text y="3.841" class="f">➜</text><text x="2.004" y="3.841" class="f">git</text><text x="6.012" y="3.841" class="f">clone</text><text x="12.024" y="3.841" class="f">git@github.com:ps-pat/d</text></svg><svg x="2376"><use xlink:href="#a"/><use xlink:href="#b" x="35.996" y="2.146"/><text y="3.841" class="f">➜</text><text x="2.004" y="3.841" class="f">git</text><text x="6.012" y="3.841" class="f">clone</text><text x="12.024" y="3.841" class="f">git@github.com:ps-pat/du</text></svg><svg x="2442"><use xlink:href="#a"/><use xlink:href="#b" x="36.996" y="2.146"/><text y="3.841" class="f">➜</text><text x="2.004" y="3.841" class="f">git</text><text x="6.012" y="3.841" class="f">clone</text><text x="12.024" y="3.841" class="f">git@github.com:ps-pat/dum</text></svg><svg x="2508"><use xlink:href="#a"/><use xlink:href="#b" x="37.996" y="2.146"/><text y="3.841" class="f">➜</text><text x="2.004" y="3.841" class="f">git</text><text x="6.012" y="3.841" class="f">clone</text><text x="12.024" y="3.841" class="f">git@github.com:ps-pat/dumm</text></svg><svg x="2574"><use xlink:href="#a"/><use xlink:href="#b" x="38.996" y="2.146"/><text y="3.841" class="f">➜</text><text x="2.004" y="3.841" class="f">git</text><text x="6.012" y="3.841" class="f">clone</text><text x="12.024" y="3.841" class="f">git@github.com:ps-pat/dummy</text></svg><svg x="2640"><use xlink:href="#a"/><use xlink:href="#b" x="39.996" y="2.146"/><text y="3.841" class="f">➜</text><text x="2.004" y="3.841" class="f">git</text><text x="6.012" y="3.841" class="f">clone</text><text x="12.024" y="3.841" class="f">git@github.com:ps-pat/dummy.</text></svg><svg x="2706"><use xlink:href="#a"/><use xlink:href="#b" x="40.996" y="2.146"/><text y="3.841" class="f">➜</text><text x="2.004" y="3.841" class="f">git</text><text x="6.012" y="3.841" class="f">clone</text><text x="12.024" y="3.841" class="f">git@github.com:ps-pat/dummy.g</text></svg><svg x="2772"><use xlink:href="#a"/><use xlink:href="#b" x="41.996" y="2.146"/><text y="3.841" class="f">➜</text><text x="2.004" y="3.841" class="f">git</text><text x="6.012" y="3.841" class="f">clone</text><text x="12.024" y="3.841" class="f">git@github.com:ps-pat/dummy.gi</text></svg><svg x="2838"><use xlink:href="#a"/><use xlink:href="#b" x="42.996" y="2.146"/><use xlink:href="#4" y="2.171"/></svg><svg x="2904"><use xlink:href="#a"/><use xlink:href="#b" x="-.004" y="4.317"/><use xlink:href="#4" y="2.171"/></svg><svg x="2970"><use xlink:href="#a"/><use xlink:href="#b" x="-.004" y="6.488"/><use xlink:href="#4" y="2.171"/><use xlink:href="#5" y="4.342"/></svg><svg x="3036"><use xlink:href="#a"/><use xlink:href="#b" x="-.004" y="13.001"/><use xlink:href="#4" y="2.171"/><use xlink:href="#5" y="4.342"/><use xlink:href="#6" y="6.513"/><use xlink:href="#7" y="8.684"/><use xlink:href="#8" y="10.855"/></svg><svg x="3102"><use xlink:href="#a"/><use xlink:href="#b" x="-.004" y="13.001"/><use xlink:href="#4" y="2.171"/><use xlink:href="#5" y="4.342"/><use xlink:href="#6" y="6.513"/><use xlink:href="#7" y="8.684"/><use xlink:href="#8" y="10.855"/><text y="14.696" class="f">Receiving</text><text x="10.02" y="14.696" class="f">objects:</text><text x="20.04" y="14.696" class="f">25%</text><text x="24.048" y="14.696" class="f">(1/4)</text></svg><svg x="3168"><use xlink:href="#a"/><use xlink:href="#b" x="-.004" y="13.001"/><use xlink:href="#4" y="2.171"/><use xlink:href="#5" y="4.342"/><use xlink:href="#6" y="6.513"/><use xlink:href="#7" y="8.684"/><use xlink:href="#8" y="10.855"/><text y="14.696" class="f">Receiving</text><text x="10.02" y="14.696" class="f">objects:</text><text x="20.04" y="14.696" class="f">50%</text><text x="24.048" y="14.696" class="f">(2/4)</text></svg><svg x="3234"><use xlink:href="#a"/><use xlink:href="#b" x="-.004" y="13.001"/><use xlink:href="#4" y="2.171"/><use xlink:href="#5" y="4.342"/><use xlink:href="#6" y="6.513"/><use xlink:href="#7" y="8.684"/><use xlink:href="#8" y="10.855"/><text y="14.696" class="f">Receiving</text><text x="10.02" y="14.696" class="f">objects:</text><text x="19.038" y="14.696" class="f">100%</text><text x="24.048" y="14.696" class="f">(4/4)</text></svg><svg x="3300"><use xlink:href="#a"/><use xlink:href="#b" x="-.004" y="17.343"/><use xlink:href="#4" y="2.171"/><use xlink:href="#5" y="4.342"/><use xlink:href="#6" y="6.513"/><use xlink:href="#7" y="8.684"/><use xlink:href="#8" y="10.855"/><use xlink:href="#9" y="13.026"/><use xlink:href="#10" y="15.197"/></svg><svg x="3366"><use xlink:href="#a"/><use xlink:href="#b" x="-.004" y="17.343"/><use xlink:href="#4" y="2.171"/><use xlink:href="#5" y="4.342"/><use xlink:href="#6" y="6.513"/><use xlink:href="#7" y="8.684"/><use xlink:href="#8" y="10.855"/><use xlink:href="#9" y="13.026"/><use xlink:href="#10" y="15.197"/></svg><svg x="3432"><use xlink:href="#a"/><use xlink:href="#b" x="1.996" y="19.514"/><use xlink:href="#4" y="2.171"/><use xlink:href="#5" y="4.342"/><use xlink:href="#6" y="6.513"/><use xlink:href="#7" y="8.684"/><use xlink:href="#8" y="10.855"/><use xlink:href="#9" y="13.026"/><use xlink:href="#10" y="15.197"/><use xlink:href="#1" y="19.539"/></svg><svg x="3498"><use xlink:href="#a"/><use xlink:href="#b" x="2.996" y="19.514"/><use xlink:href="#4" y="2.171"/><use xlink:href="#5" y="4.342"/><use xlink:href="#6" y="6.513"/><use xlink:href="#7" y="8.684"/><use xlink:href="#8" y="10.855"/><use xlink:href="#9" y="13.026"/><use xlink:href="#10" y="15.197"/><text y="21.209" class="f">➜</text><text x="2.004" y="21.209" class="f">c</text></svg><svg x="3564"><use xlink:href="#a"/><use xlink:href="#b" x="3.996" y="19.514"/><use xlink:href="#4" y="2.171"/><use xlink:href="#5" y="4.342"/><use xlink:href="#6" y="6.513"/><use xlink:href="#7" y="8.684"/><use xlink:href="#8" y="10.855"/><use xlink:href="#9" y="13.026"/><use xlink:href="#10" y="15.197"/><use xlink:href="#11" y="19.539"/></svg><svg x="3630"><use xlink:href="#a"/><use xlink:href="#b" x="4.996" y="19.514"/><use xlink:href="#4" y="2.171"/><use xlink:href="#5" y="4.342"/><use xlink:href="#6" y="6.513"/><use xlink:href="#7" y="8.684"/><use xlink:href="#8" y="10.855"/><use xlink:href="#9" y="13.026"/><use xlink:href="#10" y="15.197"/><use xlink:href="#11" y="19.539"/></svg><svg x="3696"><use xlink:href="#a"/><use xlink:href="#b" x="5.996" y="19.514"/><use xlink:href="#4" y="2.171"/><use xlink:href="#5" y="4.342"/><use xlink:href="#6" y="6.513"/><use xlink:href="#7" y="8.684"/><use xlink:href="#8" y="10.855"/><use xlink:href="#9" y="13.026"/><use xlink:href="#10" y="15.197"/><text y="21.209" class="f">➜</text><text x="2.004" y="21.209" class="f">cd</text><text x="5.01" y="21.209" class="f">d</text></svg><svg x="3762"><use xlink:href="#a"/><use xlink:href="#b" x="6.996" y="19.514"/><use xlink:href="#4" y="2.171"/><use xlink:href="#5" y="4.342"/><use xlink:href="#6" y="6.513"/><use xlink:href="#7" y="8.684"/><use xlink:href="#8" y="10.855"/><use xlink:href="#9" y="13.026"/><use xlink:href="#10" y="15.197"/><text y="21.209" class="f">➜</text><text x="2.004" y="21.209" class="f">cd</text><text x="5.01" y="21.209" class="f">du</text></svg><svg x="3828"><use xlink:href="#a"/><use xlink:href="#b" x="7.996" y="19.514"/><use xlink:href="#4" y="2.171"/><use xlink:href="#5" y="4.342"/><use xlink:href="#6" y="6.513"/><use xlink:href="#7" y="8.684"/><use xlink:href="#8" y="10.855"/><use xlink:href="#9" y="13.026"/><use xlink:href="#10" y="15.197"/><text y="21.209" class="f">➜</text><text x="2.004" y="21.209" class="f">cd</text><text x="5.01" y="21.209" class="f">dum</text></svg><svg x="3894"><use xlink:href="#a"/><use xlink:href="#b" x="8.996" y="19.514"/><use xlink:href="#4" y="2.171"/><use xlink:href="#5" y="4.342"/><use xlink:href="#6" y="6.513"/><use xlink:href="#7" y="8.684"/><use xlink:href="#8" y="10.855"/><use xlink:href="#9" y="13.026"/><use xlink:href="#10" y="15.197"/><text y="21.209" class="f">➜</text><text x="2.004" y="21.209" class="f">cd</text><text x="5.01" y="21.209" class="f">dumm</text></svg><svg x="3960"><use xlink:href="#a"/><use xlink:href="#b" x="9.996" y="19.514"/><use xlink:href="#4" y="2.171"/><use xlink:href="#5" y="4.342"/><use xlink:href="#6" y="6.513"/><use xlink:href="#7" y="8.684"/><use xlink:href="#8" y="10.855"/><use xlink:href="#9" y="13.026"/><use xlink:href="#10" y="15.197"/><use xlink:href="#12" y="19.539"/></svg><svg x="4026"><use xlink:href="#a"/><use xlink:href="#b" x="-.004" y="21.685"/><use xlink:href="#4" y="2.171"/><use xlink:href="#5" y="4.342"/><use xlink:href="#6" y="6.513"/><use xlink:href="#7" y="8.684"/><use xlink:href="#8" y="10.855"/><use xlink:href="#9" y="13.026"/><use xlink:href="#10" y="15.197"/><use xlink:href="#12" y="19.539"/></svg><svg x="4092"><use xlink:href="#a"/><use xlink:href="#b" x="-.004" y="21.685"/><use xlink:href="#4" y="2.171"/><use xlink:href="#5" y="4.342"/><use xlink:href="#6" y="6.513"/><use xlink:href="#7" y="8.684"/><use xlink:href="#8" y="10.855"/><use xlink:href="#9" y="13.026"/><use xlink:href="#10" y="15.197"/><use xlink:href="#12" y="19.539"/></svg><svg x="4158"><use xlink:href="#a"/><use xlink:href="#b" x="1.996" y="23.856"/><use xlink:href="#4" y="2.171"/><use xlink:href="#5" y="4.342"/><use xlink:href="#6" y="6.513"/><use xlink:href="#7" y="8.684"/><use xlink:href="#8" y="10.855"/><use xlink:href="#9" y="13.026"/><use xlink:href="#10" y="15.197"/><use xlink:href="#12" y="19.539"/><use xlink:href="#1" y="23.881"/></svg><svg x="4224"><use xlink:href="#a"/><use xlink:href="#b" x="2.996" y="23.856"/><use xlink:href="#4" y="2.171"/><use xlink:href="#5" y="4.342"/><use xlink:href="#6" y="6.513"/><use xlink:href="#7" y="8.684"/><use xlink:href="#8" y="10.855"/><use xlink:href="#9" y="13.026"/><use xlink:href="#10" y="15.197"/><use xlink:href="#12" y="19.539"/><text y="25.551" class="f">➜</text><text x="2.004" y="25.551" class="f">l</text></svg><svg x="4290"><use xlink:href="#a"/><use xlink:href="#b" x="3.996" y="23.856"/><use xlink:href="#4" y="2.171"/><use xlink:href="#5" y="4.342"/><use xlink:href="#6" y="6.513"/><use xlink:href="#7" y="8.684"/><use xlink:href="#8" y="10.855"/><use xlink:href="#9" y="13.026"/><use xlink:href="#10" y="15.197"/><use xlink:href="#12" y="19.539"/><use xlink:href="#13" y="23.881"/></svg><svg x="4356"><use xlink:href="#a"/><use xlink:href="#b" x="-.004" y="26.027"/><use xlink:href="#4" y="2.171"/><use xlink:href="#5" y="4.342"/><use xlink:href="#6" y="6.513"/><use xlink:href="#7" y="8.684"/><use xlink:href="#8" y="10.855"/><use xlink:href="#9" y="13.026"/><use xlink:href="#10" y="15.197"/><use xlink:href="#12" y="19.539"/><use xlink:href="#13" y="23.881"/></svg><svg x="4422"><use xlink:href="#a"/><use xlink:href="#b" x="-.004" y="28.198"/><use xlink:href="#4" y="2.171"/><use xlink:href="#5" y="4.342"/><use xlink:href="#6" y="6.513"/><use xlink:href="#7" y="8.684"/><use xlink:href="#8" y="10.855"/><use xlink:href="#9" y="13.026"/><use xlink:href="#10" y="15.197"/><use xlink:href="#12" y="19.539"/><use xlink:href="#13" y="23.881"/><use xlink:href="#14" y="26.052"/></svg><svg x="4488"><use xlink:href="#a"/><use xlink:href="#b" x="-.004" y="28.198"/><use xlink:href="#4" y="2.171"/><use xlink:href="#5" y="4.342"/><use xlink:href="#6" y="6.513"/><use xlink:href="#7" y="8.684"/><use xlink:href="#8" y="10.855"/><use xlink:href="#9" y="13.026"/><use xlink:href="#10" y="15.197"/><use xlink:href="#12" y="19.539"/><use xlink:href="#13" y="23.881"/><use xlink:href="#14" y="26.052"/></svg><svg x="4554"><use xlink:href="#a"/><use xlink:href="#b" x="1.996" y="30.369"/><use xlink:href="#4" y="2.171"/><use xlink:href="#5" y="4.342"/><use xlink:href="#6" y="6.513"/><use xlink:href="#7" y="8.684"/><use xlink:href="#8" y="10.855"/><use xlink:href="#9" y="13.026"/><use xlink:href="#10" y="15.197"/><use xlink:href="#12" y="19.539"/><use xlink:href="#13" y="23.881"/><use xlink:href="#14" y="26.052"/><use xlink:href="#1" y="30.394"/></svg><svg x="4620"><use xlink:href="#a"/><use xlink:href="#b" x="-.004" y="32.54"/><use xlink:href="#4" y="2.171"/><use xlink:href="#5" y="4.342"/><use xlink:href="#6" y="6.513"/><use xlink:href="#7" y="8.684"/><use xlink:href="#8" y="10.855"/><use xlink:href="#9" y="13.026"/><use xlink:href="#10" y="15.197"/><use xlink:href="#12" y="19.539"/><use xlink:href="#13" y="23.881"/><use xlink:href="#14" y="26.052"/><use xlink:href="#1" y="30.394"/></svg><svg x="4686"><use xlink:href="#a"/><use xlink:href="#b" x="-.004" y="32.54"/><use xlink:href="#4"/><use xlink:href="#5" y="2.171"/><use xlink:href="#6" y="4.342"/><use xlink:href="#7" y="6.513"/><use xlink:href="#8" y="8.684"/><use xlink:href="#9" y="10.855"/><use xlink:href="#10" y="13.026"/><use xlink:href="#12" y="17.368"/><use xlink:href="#13" y="21.71"/><use xlink:href="#14" y="23.881"/><use xlink:href="#1" y="28.223"/><text y="32.064" class="f">exit</text></svg></svg></g></g></svg></svg>