<svg xmlns="http://www.w3.org/2000/svg" xmlns:xlink="http://www.w3.org/1999/xlink" width="700" height="385.65"><rect width="700" height="385.65" rx="5" ry="5" class="a"/><svg y="0%" x="0%"><circle cx="20" cy="20" r="6" fill="#ff5f58"/><circle cx="40" cy="20" r="6" fill="#ffbd2e"/><circle cx="60" cy="20" r="6" fill="#18c132"/></svg><svg height="325.65" viewBox="0 0 66 32.565" width="660" x="15" xmlns="http://www.w3.org/2000/svg" xmlns:xlink="http://www.w3.org/1999/xlink" y="50"><style>@keyframes i{0%{transform:translateX(0)}.1%{transform:translateX(-132px)}6.7%{transform:translateX(-198px)}7.5%{transform:translateX(-264px)}9.6%{transform:translateX(-330px)}10.8%{transform:translateX(-396px)}12%{transform:translateX(-462px)}15.4%{transform:translateX(-528px)}17.2%{transform:translateX(-594px)}18.7%{transform:translateX(-660px)}22.1%{transform:translateX(-792px)}34.7%{transform:translateX(-924px)}34.8%{transform:translateX(-1386px)}39.3%{transform:translateX(-1584px)}52.9%{transform:translateX(-1650px)}53.9%{transform:translateX(-1716px)}55.9%{transform:translateX(-1782px)}56.8%{transform:translateX(-1848px)}58.6%{transform:translateX(-1914px)}61.8%{transform:translateX(-1980px)}65.3%{transform:translateX(-2046px)}67.4%{transform:translateX(-2112px)}72.2%{transform:translateX(-2178px)}86.1%{transform:translateX(-2376px)}to{transform:translateX(-2508px)}}.a{fill:#282d35}.f{fill:#a8cc8c;white-space:pre}</style><g font-family="Monaco,Consolas,Menlo,'Bitstream Vera Sans Mono','Powerline Symbols',monospace" font-size="1.67"><defs><symbol id="1"><text y="1.67" class="f">➜</text></symbol><symbol id="2"><text y="1.67" class="f">➜</text><text x="2.004" y="1.67" class="f">g</text></symbol><symbol id="3"><text y="1.67" class="f">➜</text><text x="2.004" y="1.67" class="f">gi</text></symbol><symbol id="4"><text y="1.67" class="f">➜</text><text x="2.004" y="1.67" class="f">git</text></symbol><symbol id="5"><text y="1.67" class="f">➜</text><text x="2.004" y="1.67" class="f">git</text><text x="6.012" y="1.67" class="f">p</text></symbol><symbol id="6"><text y="1.67" class="f">➜</text><text x="2.004" y="1.67" class="f">git</text><text x="6.012" y="1.67" class="f">pu</text></symbol><symbol id="7"><text y="1.67" class="f">➜</text><text x="2.004" y="1.67" class="f">git</text><text x="6.012" y="1.67" class="f">push</text></symbol><symbol id="8"><text y="1.67" class="f">Enumerating</text><text x="12.024" y="1.67" class="f">objects:</text><text x="21.042" y="1.67" class="f">5,</text><text x="24.048" y="1.67" class="f">done.</text></symbol><symbol id="9"><text y="1.67" class="f">Counting</text><text x="9.018" y="1.67" class="f">objects:</text><text x="18.036" y="1.67" class="f">100%</text><text x="23.046" y="1.67" class="f">(5/5),</text><text x="30.06" y="1.67" class="f">done.</text></symbol><symbol id="10"><text y="1.67" class="f">Delta</text><text x="6.012" y="1.67" class="f">compression</text><text x="18.036" y="1.67" class="f">using</text><text x="24.048" y="1.67" class="f">up</text><text x="27.054" y="1.67" class="f">to</text><text x="30.06" y="1.67" class="f">4</text><text x="32.064" y="1.67" class="f">threads</text></symbol><symbol id="11"><text y="1.67" class="f">Compressing</text><text x="12.024" y="1.67" class="f">objects:</text><text x="21.042" y="1.67" class="f">100%</text><text x="26.052" y="1.67" class="f">(2/2),</text><text x="33.066" y="1.67" class="f">done.</text></symbol><symbol id="12"><text y="1.67" class="f">Writing</text><text x="8.016" y="1.67" class="f">objects:</text><text x="17.034" y="1.67" class="f">100%</text><text x="22.044" y="1.67" class="f">(3/3),</text><text x="29.058" y="1.67" class="f">328</text><text x="33.066" y="1.67" class="f">bytes</text><text x="39.078" y="1.67" class="f">|</text><text x="41.082" y="1.67" class="f">328.00</text><text x="48.096" y="1.67" class="f">KiB/s,</text><text x="55.11" y="1.67" class="f">done.</text></symbol><symbol id="13"><text y="1.67" class="f">Total</text><text x="6.012" y="1.67" class="f">3</text><text x="8.016" y="1.67" class="f">(delta</text><text x="15.03" y="1.67" class="f">0),</text><text x="19.038" y="1.67" class="f">reused</text><text x="26.052" y="1.67" class="f">1</text><text x="28.056" y="1.67" class="f">(delta</text><text x="35.07" y="1.67" class="f">0),</text><text x="39.078" y="1.67" class="f">pack-reused</text><text x="51.102" y="1.67" class="f">0</text></symbol><symbol id="14"><text y="1.67" class="f">To</text><text x="3.006" y="1.67" class="f">github.com:ps-pat/dummy.git</text></symbol><symbol id="15"><text x="3.006" y="1.67" class="f">03fd823..b139955</text><text x="21.042" y="1.67" class="f">main</text><text x="26.052" y="1.67" class="f">-&gt;</text><text x="29.058" y="1.67" class="f">main</text></symbol><symbol id="16"><text y="1.67" class="f">➜</text><text x="2.004" y="1.67" class="f">git</text><text x="6.012" y="1.67" class="f">pull</text></symbol><symbol id="17"><text y="1.67" class="f">Already</text><text x="8.016" y="1.67" class="f">up</text><text x="11.022" y="1.67" class="f">to</text><text x="14.028" y="1.67" class="f">date.</text></symbol><symbol id="a"><path fill="transparent" d="M0 0h66v16H0z"/></symbol><symbol id="b"><path fill="#6f7683" d="M0 0h1.102v2.171H0z"/></symbol></defs><path class="a" d="M0 0h66v32.565H0z"/><g style="animation-duration:6.637363s;animation-iteration-count:infinite;animation-name:i;animation-timing-function:steps(1,end)"><svg width="2574"><svg><use xlink:href="#a"/><use xlink:href="#b" x="-.004"/></svg><svg x="66"><use xlink:href="#a"/><use xlink:href="#b" x="-.004"/></svg><svg x="132"><use xlink:href="#a"/><use xlink:href="#b" x="1.996" y="2.146"/><use xlink:href="#1" y="2.171"/></svg><svg x="198"><use xlink:href="#a"/><use xlink:href="#b" x="2.996" y="2.146"/><use xlink:href="#2" y="2.171"/></svg><svg x="264"><use xlink:href="#a"/><use xlink:href="#b" x="3.996" y="2.146"/><use xlink:href="#3" y="2.171"/></svg><svg x="330"><use xlink:href="#a"/><use xlink:href="#b" x="4.996" y="2.146"/><use xlink:href="#4" y="2.171"/></svg><svg x="396"><use xlink:href="#a"/><use xlink:href="#b" x="5.996" y="2.146"/><use xlink:href="#4" y="2.171"/></svg><svg x="462"><use xlink:href="#a"/><use xlink:href="#b" x="6.996" y="2.146"/><use xlink:href="#5" y="2.171"/></svg><svg x="528"><use xlink:href="#a"/><use xlink:href="#b" x="7.996" y="2.146"/><use xlink:href="#6" y="2.171"/></svg><svg x="594"><use xlink:href="#a"/><use xlink:href="#b" x="8.996" y="2.146"/><text y="3.841" class="f">➜</text><text x="2.004" y="3.841" class="f">git</text><text x="6.012" y="3.841" class="f">pus</text></svg><svg x="660"><use xlink:href="#a"/><use xlink:href="#b" x="9.996" y="2.146"/><use xlink:href="#7" y="2.171"/></svg><svg x="726"><use xlink:href="#a"/><use xlink:href="#b" x="-.004" y="4.317"/><use xlink:href="#7" y="2.171"/></svg><svg x="792"><use xlink:href="#a"/><use xlink:href="#b" x="-.004" y="4.317"/><use xlink:href="#7" y="2.171"/></svg><svg x="858"><use xlink:href="#a"/><use xlink:href="#b" x="-.004" y="6.488"/><use xlink:href="#7" y="2.171"/><use xlink:href="#8" y="4.342"/></svg><svg x="924"><use xlink:href="#a"/><use xlink:href="#b" x="-.004" y="6.488"/><use xlink:href="#7" y="2.171"/><use xlink:href="#8" y="4.342"/><text y="8.183" class="f">Counting</text><text x="9.018" y="8.183" class="f">objects:</text><text x="19.038" y="8.183" class="f">60%</text><text x="23.046" y="8.183" class="f">(3/5)</text></svg><svg x="990"><use xlink:href="#a"/><use xlink:href="#b" x="-.004" y="8.659"/><use xlink:href="#7" y="2.171"/><use xlink:href="#8" y="4.342"/><use xlink:href="#9" y="6.513"/></svg><svg x="1056"><use xlink:href="#a"/><use xlink:href="#b" x="-.004" y="10.83"/><use xlink:href="#7" y="2.171"/><use xlink:href="#8" y="4.342"/><use xlink:href="#9" y="6.513"/><use xlink:href="#10" y="8.684"/></svg><svg x="1122"><use xlink:href="#a"/><use xlink:href="#b" x="-.004" y="10.83"/><use xlink:href="#7" y="2.171"/><use xlink:href="#8" y="4.342"/><use xlink:href="#9" y="6.513"/><use xlink:href="#10" y="8.684"/><text y="12.525" class="f">Compressing</text><text x="12.024" y="12.525" class="f">objects:</text><text x="21.042" y="12.525" class="f">100%</text><text x="26.052" y="12.525" class="f">(2/2)</text></svg><svg x="1188"><use xlink:href="#a"/><use xlink:href="#b" x="-.004" y="13.001"/><use xlink:href="#7" y="2.171"/><use xlink:href="#8" y="4.342"/><use xlink:href="#9" y="6.513"/><use xlink:href="#10" y="8.684"/><use xlink:href="#11" y="10.855"/></svg><svg x="1254"><use xlink:href="#a"/><use xlink:href="#b" x="-.004" y="13.001"/><use xlink:href="#7" y="2.171"/><use xlink:href="#8" y="4.342"/><use xlink:href="#9" y="6.513"/><use xlink:href="#10" y="8.684"/><use xlink:href="#11" y="10.855"/><text y="14.696" class="f">Writing</text><text x="8.016" y="14.696" class="f">objects:</text><text x="18.036" y="14.696" class="f">33%</text><text x="22.044" y="14.696" class="f">(1/3)</text></svg><svg x="1320"><use xlink:href="#a"/><use xlink:href="#b" x="-.004" y="13.001"/><use xlink:href="#7" y="2.171"/><use xlink:href="#8" y="4.342"/><use xlink:href="#9" y="6.513"/><use xlink:href="#10" y="8.684"/><use xlink:href="#11" y="10.855"/><text y="14.696" class="f">Writing</text><text x="8.016" y="14.696" class="f">objects:</text><text x="17.034" y="14.696" class="f">100%</text><text x="22.044" y="14.696" class="f">(3/3)</text></svg><svg x="1386"><use xlink:href="#a"/><use xlink:href="#b" x="-.004" y="17.343"/><use xlink:href="#7" y="2.171"/><use xlink:href="#8" y="4.342"/><use xlink:href="#9" y="6.513"/><use xlink:href="#10" y="8.684"/><use xlink:href="#11" y="10.855"/><use xlink:href="#12" y="13.026"/><use xlink:href="#13" y="15.197"/></svg><svg x="1452"><use xlink:href="#a"/><use xlink:href="#b" x="-.004" y="21.685"/><use xlink:href="#7" y="2.171"/><use xlink:href="#8" y="4.342"/><use xlink:href="#9" y="6.513"/><use xlink:href="#10" y="8.684"/><use xlink:href="#11" y="10.855"/><use xlink:href="#12" y="13.026"/><use xlink:href="#13" y="15.197"/><use xlink:href="#14" y="17.368"/><use xlink:href="#15" y="19.539"/></svg><svg x="1518"><use xlink:href="#a"/><use xlink:href="#b" x="-.004" y="21.685"/><use xlink:href="#7" y="2.171"/><use xlink:href="#8" y="4.342"/><use xlink:href="#9" y="6.513"/><use xlink:href="#10" y="8.684"/><use xlink:href="#11" y="10.855"/><use xlink:href="#12" y="13.026"/><use xlink:href="#13" y="15.197"/><use xlink:href="#14" y="17.368"/><use xlink:href="#15" y="19.539"/></svg><svg x="1584"><use xlink:href="#a"/><use xlink:href="#b" x="1.996" y="23.856"/><use xlink:href="#7" y="2.171"/><use xlink:href="#8" y="4.342"/><use xlink:href="#9" y="6.513"/><use xlink:href="#10" y="8.684"/><use xlink:href="#11" y="10.855"/><use xlink:href="#12" y="13.026"/><use xlink:href="#13" y="15.197"/><use xlink:href="#14" y="17.368"/><use xlink:href="#15" y="19.539"/><use xlink:href="#1" y="23.881"/></svg><svg x="1650"><use xlink:href="#a"/><use xlink:href="#b" x="2.996" y="23.856"/><use xlink:href="#7" y="2.171"/><use xlink:href="#8" y="4.342"/><use xlink:href="#9" y="6.513"/><use xlink:href="#10" y="8.684"/><use xlink:href="#11" y="10.855"/><use xlink:href="#12" y="13.026"/><use xlink:href="#13" y="15.197"/><use xlink:href="#14" y="17.368"/><use xlink:href="#15" y="19.539"/><use xlink:href="#2" y="23.881"/></svg><svg x="1716"><use xlink:href="#a"/><use xlink:href="#b" x="3.996" y="23.856"/><use xlink:href="#7" y="2.171"/><use xlink:href="#8" y="4.342"/><use xlink:href="#9" y="6.513"/><use xlink:href="#10" y="8.684"/><use xlink:href="#11" y="10.855"/><use xlink:href="#12" y="13.026"/><use xlink:href="#13" y="15.197"/><use xlink:href="#14" y="17.368"/><use xlink:href="#15" y="19.539"/><use xlink:href="#3" y="23.881"/></svg><svg x="1782"><use xlink:href="#a"/><use xlink:href="#b" x="4.996" y="23.856"/><use xlink:href="#7" y="2.171"/><use xlink:href="#8" y="4.342"/><use xlink:href="#9" y="6.513"/><use xlink:href="#10" y="8.684"/><use xlink:href="#11" y="10.855"/><use xlink:href="#12" y="13.026"/><use xlink:href="#13" y="15.197"/><use xlink:href="#14" y="17.368"/><use xlink:href="#15" y="19.539"/><use xlink:href="#4" y="23.881"/></svg><svg x="1848"><use xlink:href="#a"/><use xlink:href="#b" x="5.996" y="23.856"/><use xlink:href="#7" y="2.171"/><use xlink:href="#8" y="4.342"/><use xlink:href="#9" y="6.513"/><use xlink:href="#10" y="8.684"/><use xlink:href="#11" y="10.855"/><use xlink:href="#12" y="13.026"/><use xlink:href="#13" y="15.197"/><use xlink:href="#14" y="17.368"/><use xlink:href="#15" y="19.539"/><use xlink:href="#4" y="23.881"/></svg><svg x="1914"><use xlink:href="#a"/><use xlink:href="#b" x="6.996" y="23.856"/><use xlink:href="#7" y="2.171"/><use xlink:href="#8" y="4.342"/><use xlink:href="#9" y="6.513"/><use xlink:href="#10" y="8.684"/><use xlink:href="#11" y="10.855"/><use xlink:href="#12" y="13.026"/><use xlink:href="#13" y="15.197"/><use xlink:href="#14" y="17.368"/><use xlink:href="#15" y="19.539"/><use xlink:href="#5" y="23.881"/></svg><svg x="1980"><use xlink:href="#a"/><use xlink:href="#b" x="7.996" y="23.856"/><use xlink:href="#7" y="2.171"/><use xlink:href="#8" y="4.342"/><use xlink:href="#9" y="6.513"/><use xlink:href="#10" y="8.684"/><use xlink:href="#11" y="10.855"/><use xlink:href="#12" y="13.026"/><use xlink:href="#13" y="15.197"/><use xlink:href="#14" y="17.368"/><use xlink:href="#15" y="19.539"/><use xlink:href="#6" y="23.881"/></svg><svg x="2046"><use xlink:href="#a"/><use xlink:href="#b" x="8.996" y="23.856"/><use xlink:href="#7" y="2.171"/><use xlink:href="#8" y="4.342"/><use xlink:href="#9" y="6.513"/><use xlink:href="#10" y="8.684"/><use xlink:href="#11" y="10.855"/><use xlink:href="#12" y="13.026"/><use xlink:href="#13" y="15.197"/><use xlink:href="#14" y="17.368"/><use xlink:href="#15" y="19.539"/><text y="25.551" class="f">➜</text><text x="2.004" y="25.551" class="f">git</text><text x="6.012" y="25.551" class="f">pul</text></svg><svg x="2112"><use xlink:href="#a"/><use xlink:href="#b" x="9.996" y="23.856"/><use xlink:href="#7" y="2.171"/><use xlink:href="#8" y="4.342"/><use xlink:href="#9" y="6.513"/><use xlink:href="#10" y="8.684"/><use xlink:href="#11" y="10.855"/><use xlink:href="#12" y="13.026"/><use xlink:href="#13" y="15.197"/><use xlink:href="#14" y="17.368"/><use xlink:href="#15" y="19.539"/><use xlink:href="#16" y="23.881"/></svg><svg x="2178"><use xlink:href="#a"/><use xlink:href="#b" x="-.004" y="26.027"/><use xlink:href="#7" y="2.171"/><use xlink:href="#8" y="4.342"/><use xlink:href="#9" y="6.513"/><use xlink:href="#10" y="8.684"/><use xlink:href="#11" y="10.855"/><use xlink:href="#12" y="13.026"/><use xlink:href="#13" y="15.197"/><use xlink:href="#14" y="17.368"/><use xlink:href="#15" y="19.539"/><use xlink:href="#16" y="23.881"/></svg><svg x="2244"><use xlink:href="#a"/><use xlink:href="#b" x="-.004" y="28.198"/><use xlink:href="#7" y="2.171"/><use xlink:href="#8" y="4.342"/><use xlink:href="#9" y="6.513"/><use xlink:href="#10" y="8.684"/><use xlink:href="#11" y="10.855"/><use xlink:href="#12" y="13.026"/><use xlink:href="#13" y="15.197"/><use xlink:href="#14" y="17.368"/><use xlink:href="#15" y="19.539"/><use xlink:href="#16" y="23.881"/><use xlink:href="#17" y="26.052"/></svg><svg x="2310"><use xlink:href="#a"/><use xlink:href="#b" x="-.004" y="28.198"/><use xlink:href="#7" y="2.171"/><use xlink:href="#8" y="4.342"/><use xlink:href="#9" y="6.513"/><use xlink:href="#10" y="8.684"/><use xlink:href="#11" y="10.855"/><use xlink:href="#12" y="13.026"/><use xlink:href="#13" y="15.197"/><use xlink:href="#14" y="17.368"/><use xlink:href="#15" y="19.539"/><use xlink:href="#16" y="23.881"/><use xlink:href="#17" y="26.052"/></svg><svg x="2376"><use xlink:href="#a"/><use xlink:href="#b" x="1.996" y="30.369"/><use xlink:href="#7" y="2.171"/><use xlink:href="#8" y="4.342"/><use xlink:href="#9" y="6.513"/><use xlink:href="#10" y="8.684"/><use xlink:href="#11" y="10.855"/><use xlink:href="#12" y="13.026"/><use xlink:href="#13" y="15.197"/><use xlink:href="#14" y="17.368"/><use xlink:href="#15" y="19.539"/><use xlink:href="#16" y="23.881"/><use xlink:href="#17" y="26.052"/><use xlink:href="#1" y="30.394"/></svg><svg x="2442"><use xlink:href="#a"/><use xlink:href="#b" x="-.004" y="32.54"/><use xlink:href="#7" y="2.171"/><use xlink:href="#8" y="4.342"/><use xlink:href="#9" y="6.513"/><use xlink:href="#10" y="8.684"/><use xlink:href="#11" y="10.855"/><use xlink:href="#12" y="13.026"/><use xlink:href="#13" y="15.197"/><use xlink:href="#14" y="17.368"/><use xlink:href="#15" y="19.539"/><use xlink:href="#16" y="23.881"/><use xlink:href="#17" y="26.052"/><use xlink:href="#1" y="30.394"/></svg><svg x="2508"><use xlink:href="#a"/><use xlink:href="#b" x="-.004" y="32.54"/><use xlink:href="#7"/><use xlink:href="#8" y="2.171"/><use xlink:href="#9" y="4.342"/><use xlink:href="#10" y="6.513"/><use xlink:href="#11" y="8.684"/><use xlink:href="#12" y="10.855"/><use xlink:href="#13" y="13.026"/><use xlink:href="#14" y="15.197"/><use xlink:href="#15" y="17.368"/><use xlink:href="#16" y="21.71"/><use xlink:href="#17" y="23.881"/><use xlink:href="#1" y="28.223"/><text y="32.064" class="f">exit</text></svg></svg></g></g></svg></svg>